<svg version="1.1" viewBox="0.0 0.0 1343.2099737532808 644.7690288713911" fill="none" stroke="none" stroke-linecap="square" stroke-miterlimit="10" xmlns:xlink="http://www.w3.org/1999/xlink" xmlns="http://www.w3.org/2000/svg"><clipPath id="p.0"><path d="m0 0l1343.21 0l0 644.76904l-1343.21 0l0 -644.76904z" clip-rule="nonzero"/></clipPath><g clip-path="url(#p.0)"><path fill="#000000" fill-opacity="0.0" d="m0 0l1343.21 0l0 644.76904l-1343.21 0z" fill-rule="evenodd"/><path fill="#000000" fill-opacity="0.0" d="m0 -0.001312336l93.70079 0l0 72.72441l-93.70079 0z" fill-rule="evenodd"/><path fill="#000000" d="m47.79248 36.00431q-1.984375 1.640625 -4.421875 2.453125q-2.4375 0.796875 -5.875 0.796875l-4.65625 0l-2.78125 11.984375l-4.296875 0l7.390625 -31.984375l8.421875 0q2.921875 0 4.828125 0.515625q1.921875 0.515625 3.140625 1.46875q1.28125 0.96875 1.9375 2.359375q0.671875 1.390625 0.671875 3.34375q0 2.625 -1.140625 4.984375q-1.140625 2.34375 -3.21875 4.078125zm-0.203125 -8.328125q0 -1.109375 -0.359375 -2.046875q-0.359375 -0.953125 -1.140625 -1.546875q-0.921875 -0.703125 -2.1875 -1.015625q-1.25 -0.3125 -3.265625 -0.3125l-3.984375 0l-3.015625 13.03125l3.8125 0q2.578125 0 4.28125 -0.46875q1.71875 -0.46875 2.96875 -1.5q1.453125 -1.234375 2.171875 -2.75q0.71875 -1.53125 0.71875 -3.390625z" fill-rule="nonzero"/><path fill="#000000" d="m64.59131 67.738686l-11.578125 0l0.484375 -2.078125l4.390625 0l3.34375 -14.484375l-4.4375 0l0.421875 -1.859375q2.46875 0 3.828125 -0.6875q1.375 -0.703125 1.84375 -2.28125l2.234375 0l-4.46875 19.3125l4.421875 0l-0.484375 2.078125z" fill-rule="nonzero"/><path fill="#000000" fill-opacity="0.0" d="m0 119.833336l93.70079 0l0 72.7244l-93.70079 0z" fill-rule="evenodd"/><path fill="#000000" d="m47.79248 155.83896q-1.984375 1.640625 -4.421875 2.453125q-2.4375 0.796875 -5.875 0.796875l-4.65625 0l-2.78125 11.984375l-4.296875 0l7.390625 -31.984375l8.421875 0q2.921875 0 4.828125 0.515625q1.921875 0.515625 3.140625 1.46875q1.28125 0.96875 1.9375 2.359375q0.671875 1.390625 0.671875 3.34375q0 2.625 -1.140625 4.984375q-1.140625 2.34375 -3.21875 4.078125zm-0.203125 -8.328125q0 -1.109375 -0.359375 -2.046875q-0.359375 -0.953125 -1.140625 -1.546875q-0.921875 -0.703125 -2.1875 -1.015625q-1.25 -0.3125 -3.265625 -0.3125l-3.984375 0l-3.015625 13.03125l3.8125 0q2.578125 0 4.28125 -0.46875q1.71875 -0.46875 2.96875 -1.5q1.453125 -1.234375 2.171875 -2.75q0.71875 -1.53125 0.71875 -3.390625z" fill-rule="nonzero"/><path fill="#000000" d="m65.73193 187.57333l-14.453125 0l0.671875 -3.0q2.015625 -1.46875 3.421875 -2.5q1.421875 -1.046875 3.40625 -2.640625q3.5 -2.78125 4.9375 -4.6875q1.4375 -1.921875 1.4375 -3.71875q0 -1.40625 -1.0 -2.125q-0.984375 -0.71875 -2.546875 -0.71875q-1.28125 0 -2.921875 0.484375q-1.625 0.46875 -3.203125 1.375l-0.140625 0l0.5625 -2.90625q1.140625 -0.515625 2.890625 -0.921875q1.765625 -0.40625 3.390625 -0.40625q2.875 0 4.4375 1.25q1.5625 1.25 1.5625 3.390625q0 2.296875 -1.328125 4.359375q-1.3125 2.046875 -4.609375 4.796875q-1.953125 1.609375 -4.03125 3.140625q-2.0625 1.515625 -3.40625 2.484375l11.453125 0l-0.53125 2.34375z" fill-rule="nonzero"/><path fill="#000000" fill-opacity="0.0" d="m0 252.32939l93.70079 0l0 72.72441l-93.70079 0z" fill-rule="evenodd"/><path fill="#000000" d="m47.79248 288.33502q-1.984375 1.640625 -4.421875 2.453125q-2.4375 0.796875 -5.875 0.796875l-4.65625 0l-2.78125 11.984375l-4.296875 0l7.390625 -31.984375l8.421875 0q2.921875 0 4.828125 0.515625q1.921875 0.515625 3.140625 1.46875q1.28125 0.96875 1.9375 2.359375q0.671875 1.390625 0.671875 3.34375q0 2.625 -1.140625 4.984375q-1.140625 2.34375 -3.21875 4.078125zm-0.203125 -8.328125q0 -1.109375 -0.359375 -2.046875q-0.359375 -0.953125 -1.140625 -1.546875q-0.921875 -0.703125 -2.1875 -1.015625q-1.25 -0.3125 -3.265625 -0.3125l-3.984375 0l-3.015625 13.03125l3.8125 0q2.578125 0 4.28125 -0.46875q1.71875 -0.46875 2.96875 -1.5q1.453125 -1.234375 2.171875 -2.75q0.71875 -1.53125 0.71875 -3.390625z" fill-rule="nonzero"/><path fill="#000000" d="m64.43506 318.1944q-1.265625 1.109375 -2.90625 1.71875q-1.640625 0.59375 -3.796875 0.59375q-1.734375 0 -3.359375 -0.4375q-1.625 -0.421875 -2.75 -1.03125l0.671875 -2.75l0.21875 0q0.984375 0.75 2.46875 1.296875q1.5 0.546875 3.15625 0.546875q2.578125 0 4.21875 -1.53125q1.65625 -1.53125 1.65625 -3.984375q0 -1.5 -1.046875 -2.234375q-1.046875 -0.75 -3.25 -0.75l-1.359375 0l0.5625 -2.28125l1.359375 0q2.421875 0 3.96875 -1.109375q1.546875 -1.109375 1.546875 -3.015625q0 -1.203125 -0.9375 -1.875q-0.921875 -0.671875 -2.71875 -0.671875q-1.484375 0 -3.1875 0.546875q-1.6875 0.546875 -2.984375 1.3125l-0.140625 0l0.609375 -2.890625q1.140625 -0.5 2.90625 -0.921875q1.78125 -0.421875 3.375 -0.421875q2.8125 0 4.4375 1.125q1.625 1.125 1.625 3.0625q0 2.125 -1.578125 3.765625q-1.5625 1.640625 -3.953125 2.078125l0 0.15625q0.5625 0.109375 1.234375 0.421875q0.6875 0.296875 1.203125 0.78125q0.546875 0.484375 0.90625 1.234375q0.375 0.734375 0.375 1.75q0 1.5625 -0.671875 3.015625q-0.671875 1.453125 -1.859375 2.5z" fill-rule="nonzero"/><path fill="#000000" fill-opacity="0.0" d="m7.1364827 446.87402l104.34646 0l0 72.72443l-104.34646 0z" fill-rule="evenodd"/><path fill="#000000" d="m42.623417 482.87964q-1.984375 1.640625 -4.421875 2.453125q-2.4375 0.796875 -5.875 0.796875l-4.65625 0l-2.78125 11.984375l-4.296875 0l7.390625 -31.984375l8.421875 0q2.921875 0 4.828125 0.515625q1.921875 0.515625 3.140625 1.46875q1.28125 0.96875 1.9375 2.359375q0.671875 1.390625 0.671875 3.34375q0 2.625 -1.140625 4.984375q-1.140625 2.34375 -3.21875 4.078125zm-0.203125 -8.328125q0 -1.109375 -0.359375 -2.046875q-0.359375 -0.953125 -1.140625 -1.546875q-0.921875 -0.703125 -2.1875 -1.015625q-1.25 -0.3125 -3.265625 -0.3125l-3.984375 0l-3.015625 13.03125l3.8125 0q2.578125 0 4.28125 -0.46875q1.71875 -0.46875 2.96875 -1.5q1.453125 -1.234375 2.171875 -2.75q0.71875 -1.53125 0.71875 -3.390625z" fill-rule="nonzero"/><path fill="#000000" d="m62.922245 514.614l-3.375 0l-5.828125 -19.078125l-4.40625 19.078125l-2.6875 0l4.921875 -21.328125l4.28125 0l5.3125 17.421875l4.031254 -17.421875l2.671875 0l-4.921879 21.328125zm15.782566 -8.03125l-8.9375 0l0.609375 -2.59375l8.9375 0l-0.609375 2.59375zm15.974197 8.03125l-11.578125 0l0.484375 -2.078125l4.390625 0l3.34375 -14.484375l-4.4375 0l0.421875 -1.859375q2.46875 0 3.828125 -0.6875q1.375 -0.703125 1.84375 -2.28125l2.234375 0l-4.46875 19.3125l4.421875 0l-0.484375 2.078125z" fill-rule="nonzero"/><path fill="#000000" fill-opacity="0.0" d="m0 563.6207l93.70079 0l0 72.72443l-93.70079 0z" fill-rule="evenodd"/><path fill="#000000" d="m46.145638 599.62634q-1.984375 1.640625 -4.421875 2.453125q-2.4375 0.796875 -5.875 0.796875l-4.65625 0l-2.78125 11.984375l-4.296875 0l7.390625 -31.984375l8.421875 0q2.921875 0 4.828125 0.515625q1.921875 0.515625 3.140625 1.46875q1.28125 0.96875 1.9375 2.359375q0.671875 1.390625 0.671875 3.34375q0 2.625 -1.140625 4.984375q-1.140625 2.34375 -3.21875 4.078125zm-0.203125 -8.328125q0 -1.109375 -0.359375 -2.046875q-0.359375 -0.953125 -1.140625 -1.546875q-0.921875 -0.703125 -2.1875 -1.015625q-1.25 -0.3125 -3.265625 -0.3125l-3.984375 0l-3.015625 13.03125l3.8125 0q2.578125 0 4.28125 -0.46875q1.71875 -0.46875 2.96875 -1.5q1.453125 -1.234375 2.171875 -2.75q0.71875 -1.53125 0.71875 -3.390625z" fill-rule="nonzero"/><path fill="#000000" d="m66.444466 631.3607l-3.375 0l-5.828125 -19.078125l-4.40625 19.078125l-2.6875 0l4.921875 -21.328125l4.28125 0l5.3125 17.421875l4.03125 -17.421875l2.671875 0l-4.921875 21.328125z" fill-rule="nonzero"/><path fill="#000000" fill-opacity="0.0" d="m7.1364827 356.50787l93.70079 0l0 72.724396l-93.70079 0z" fill-rule="evenodd"/><path fill="#000000" d="m37.127502 407.74786l0 -4.40625l4.40625 0l0 4.40625l-4.40625 0zm14.671875 0l0 -4.40625l4.40625 0l0 4.40625l-4.40625 0zm14.65625 0l0 -4.40625l4.421875 0l0 4.40625l-4.421875 0z" fill-rule="nonzero"/><path fill="#f4cccc" d="m229.15486 258.85858l0 0c0 -3.6053925 2.9227448 -6.5281525 6.5281525 -6.5281525l128.64447 0c1.7313843 0 3.3918457 0.6877899 4.6161194 1.9120636c1.2242432 1.2242584 1.9120483 2.884735 1.9120483 4.616089l0 177.55786c0 3.6054077 -2.92276 6.5281677 -6.5281677 6.5281677l-128.64447 0c-3.6054077 0 -6.5281525 -2.92276 -6.5281525 -6.5281677z" fill-rule="evenodd"/><path stroke="#000000" stroke-width="2.0" stroke-linejoin="round" stroke-linecap="butt" d="m229.15486 258.85858l0 0c0 -3.6053925 2.9227448 -6.5281525 6.5281525 -6.5281525l128.64447 0c1.7313843 0 3.3918457 0.6877899 4.6161194 1.9120636c1.2242432 1.2242584 1.9120483 2.884735 1.9120483 4.616089l0 177.55786c0 3.6054077 -2.92276 6.5281677 -6.5281677 6.5281677l-128.64447 0c-3.6054077 0 -6.5281525 -2.92276 -6.5281525 -6.5281677z" fill-rule="evenodd"/><path fill="#000000" fill-opacity="0.0" d="m220.20998 308.25198l159.59056 0l0 77.5748l-159.59056 0z" fill-rule="evenodd"/><path fill="#000000" d="m251.74939 340.29196l0 -17.1875l11.78125 0l0 2.90625l-8.3125 0l0 4.078125l7.171875 0l0 2.90625l-7.171875 0l0 7.296875l-3.46875 0zm21.832031 -3.96875l3.28125 0.5625q-0.640625 1.796875 -2.015625 2.75q-1.359375 0.9375 -3.40625 0.9375q-3.25 0 -4.796875 -2.125q-1.234375 -1.703125 -1.234375 -4.28125q0 -3.09375 1.609375 -4.84375q1.625 -1.765625 4.09375 -1.765625q2.78125 0 4.375 1.84375q1.609375 1.828125 1.546875 5.609375l-8.25 0q0.03125 1.46875 0.796875 2.28125q0.765625 0.8125 1.890625 0.8125q0.78125 0 1.296875 -0.421875q0.53125 -0.421875 0.8125 -1.359375zm0.1875 -3.328125q-0.046875 -1.421875 -0.75 -2.15625q-0.703125 -0.75 -1.703125 -0.75q-1.078125 0 -1.78125 0.78125q-0.703125 0.78125 -0.6875 2.125l4.921875 0zm8.410156 -1.359375l-2.984375 -0.53125q0.5 -1.8125 1.71875 -2.671875q1.234375 -0.875 3.671875 -0.875q2.203125 0 3.28125 0.53125q1.078125 0.515625 1.515625 1.328125q0.4375 0.796875 0.4375 2.9375l-0.03125 3.84375q0 1.640625 0.15625 2.421875q0.15625 0.78125 0.59375 1.671875l-3.265625 0q-0.125 -0.328125 -0.3125 -0.96875q-0.078125 -0.296875 -0.125 -0.390625q-0.84375 0.8125 -1.8125 1.234375q-0.953125 0.40625 -2.03125 0.40625q-1.921875 0 -3.03125 -1.046875q-1.109375 -1.046875 -1.109375 -2.640625q0 -1.046875 0.5 -1.875q0.5 -0.828125 1.40625 -1.265625q0.921875 -0.4375 2.625 -0.765625q2.3125 -0.4375 3.203125 -0.8125l0 -0.328125q0 -0.953125 -0.46875 -1.34375q-0.46875 -0.40625 -1.765625 -0.40625q-0.890625 0 -1.390625 0.34375q-0.484375 0.34375 -0.78125 1.203125zm4.40625 2.671875q-0.640625 0.21875 -2.015625 0.515625q-1.359375 0.28125 -1.78125 0.5625q-0.640625 0.46875 -0.640625 1.171875q0 0.6875 0.515625 1.1875q0.515625 0.5 1.3125 0.5q0.890625 0 1.6875 -0.578125q0.609375 -0.453125 0.796875 -1.09375q0.125 -0.421875 0.125 -1.609375l0 -0.65625zm12.191406 -6.46875l0 2.625l-2.25 0l0 5.015625q0 1.53125 0.0625 1.78125q0.0625 0.25 0.28125 0.421875q0.234375 0.15625 0.5625 0.15625q0.453125 0 1.328125 -0.3125l0.28125 2.546875q-1.15625 0.5 -2.609375 0.5q-0.890625 0 -1.609375 -0.296875q-0.703125 -0.296875 -1.046875 -0.765625q-0.328125 -0.484375 -0.453125 -1.296875q-0.109375 -0.578125 -0.109375 -2.3125l0 -5.4375l-1.515625 0l0 -2.625l1.515625 0l0 -2.46875l3.3125 -1.921875l0 4.390625l2.25 0zm10.4765625 12.453125l0 -1.859375q-0.6875 0.984375 -1.796875 1.5625q-1.109375 0.578125 -2.328125 0.578125q-1.265625 0 -2.265625 -0.546875q-0.984375 -0.5625 -1.4375 -1.546875q-0.4375 -1.0 -0.4375 -2.765625l0 -7.875l3.296875 0l0 5.71875q0 2.625 0.171875 3.21875q0.1875 0.59375 0.65625 0.9375q0.484375 0.34375 1.234375 0.34375q0.84375 0 1.5 -0.453125q0.671875 -0.46875 0.921875 -1.15625q0.25 -0.6875 0.25 -3.359375l0 -5.25l3.28125 0l0 12.453125l-3.046875 0zm9.613281 0l-3.296875 0l0 -12.453125l3.0625 0l0 1.78125q0.78125 -1.265625 1.40625 -1.65625q0.640625 -0.40625 1.4375 -0.40625q1.125 0 2.15625 0.625l-1.015625 2.875q-0.828125 -0.546875 -1.546875 -0.546875q-0.6875 0 -1.171875 0.390625q-0.484375 0.375 -0.765625 1.375q-0.265625 1.0 -0.265625 4.171875l0 3.84375zm13.402344 -3.96875l3.28125 0.5625q-0.640625 1.796875 -2.015625 2.75q-1.359375 0.9375 -3.40625 0.9375q-3.25 0 -4.796875 -2.125q-1.234375 -1.703125 -1.234375 -4.28125q0 -3.09375 1.609375 -4.84375q1.625 -1.765625 4.09375 -1.765625q2.78125 0 4.375 1.84375q1.609375 1.828125 1.546875 5.609375l-8.25 0q0.03125 1.46875 0.796875 2.28125q0.765625 0.8125 1.890625 0.8125q0.78125 0 1.296875 -0.421875q0.53125 -0.421875 0.8125 -1.359375zm0.1875 -3.328125q-0.046875 -1.421875 -0.75 -2.15625q-0.703125 -0.75 -1.703125 -0.75q-1.078125 0 -1.78125 0.78125q-0.703125 0.78125 -0.6875 2.125l4.921875 0zm4.7851562 3.75l3.3125 -0.515625q0.203125 0.96875 0.84375 1.46875q0.65625 0.5 1.8125 0.5q1.28125 0 1.921875 -0.46875q0.4375 -0.328125 0.4375 -0.890625q0 -0.375 -0.234375 -0.609375q-0.25 -0.234375 -1.109375 -0.4375q-3.984375 -0.875 -5.046875 -1.609375q-1.484375 -1.0 -1.484375 -2.796875q0 -1.625 1.28125 -2.71875q1.28125 -1.109375 3.96875 -1.109375q2.546875 0 3.78125 0.84375q1.25 0.828125 1.71875 2.453125l-3.109375 0.578125q-0.1875 -0.734375 -0.75 -1.109375q-0.5625 -0.390625 -1.59375 -0.390625q-1.296875 0 -1.859375 0.359375q-0.375 0.265625 -0.375 0.671875q0 0.34375 0.328125 0.59375q0.453125 0.328125 3.078125 0.9375q2.625 0.59375 3.671875 1.453125q1.03125 0.875 1.03125 2.453125q0 1.703125 -1.4375 2.9375q-1.421875 1.234375 -4.21875 1.234375q-2.546875 0 -4.03125 -1.03125q-1.484375 -1.03125 -1.9375 -2.796875z" fill-rule="nonzero"/><path fill="#000000" d="m243.07361 369.09198l0 -17.1875l12.734375 0l0 2.90625l-9.265625 0l0 3.8125l8.625 0l0 2.890625l-8.625 0l0 4.6875l9.59375 0l0 2.890625l-13.0625 0zm14.3984375 0l4.484375 -6.40625l-4.296875 -6.046875l4.015625 0l2.203125 3.421875l2.328125 -3.421875l3.859375 0l-4.21875 5.90625l4.609375 6.546875l-4.046875 0l-2.53125 -3.859375l-2.546875 3.859375l-3.859375 0zm20.644531 -12.453125l0 2.625l-2.25 0l0 5.015625q0 1.53125 0.0625 1.78125q0.0625 0.25 0.28125 0.421875q0.234375 0.15625 0.5625 0.15625q0.453125 0 1.328125 -0.3125l0.28125 2.546875q-1.15625 0.5 -2.609375 0.5q-0.890625 0 -1.609375 -0.296875q-0.703125 -0.296875 -1.046875 -0.765625q-0.328125 -0.484375 -0.453125 -1.296875q-0.109375 -0.578125 -0.109375 -2.3125l0 -5.4375l-1.515625 0l0 -2.625l1.515625 0l0 -2.46875l3.3125 -1.921875l0 4.390625l2.25 0zm5.4296875 12.453125l-3.296875 0l0 -12.453125l3.0625 0l0 1.78125q0.78125 -1.265625 1.40625 -1.65625q0.640625 -0.40625 1.4375 -0.40625q1.125 0 2.15625 0.625l-1.015625 2.875q-0.828125 -0.546875 -1.546875 -0.546875q-0.6875 0 -1.171875 0.390625q-0.484375 0.375 -0.765625 1.375q-0.265625 1.0 -0.265625 4.171875l0 3.84375zm8.652344 -8.65625l-2.984375 -0.53125q0.5 -1.8125 1.71875 -2.671875q1.234375 -0.875 3.671875 -0.875q2.203125 0 3.28125 0.53125q1.078125 0.515625 1.515625 1.328125q0.4375 0.796875 0.4375 2.9375l-0.03125 3.84375q0 1.640625 0.15625 2.421875q0.15625 0.78125 0.59375 1.671875l-3.265625 0q-0.125 -0.328125 -0.3125 -0.96875q-0.078125 -0.296875 -0.125 -0.390625q-0.84375 0.8125 -1.8125 1.234375q-0.953125 0.40625 -2.03125 0.40625q-1.921875 0 -3.03125 -1.046875q-1.109375 -1.046875 -1.109375 -2.640625q0 -1.046875 0.5 -1.875q0.5 -0.828125 1.40625 -1.265625q0.921875 -0.4375 2.625 -0.765625q2.3125 -0.4375 3.203125 -0.8125l0 -0.328125q0 -0.953125 -0.46875 -1.34375q-0.46875 -0.40625 -1.765625 -0.40625q-0.890625 0 -1.390625 0.34375q-0.484375 0.34375 -0.78125 1.203125zm4.40625 2.671875q-0.640625 0.21875 -2.015625 0.515625q-1.359375 0.28125 -1.78125 0.5625q-0.640625 0.46875 -0.640625 1.171875q0 0.6875 0.515625 1.1875q0.515625 0.5 1.3125 0.5q0.890625 0 1.6875 -0.578125q0.609375 -0.453125 0.796875 -1.09375q0.125 -0.421875 0.125 -1.609375l0 -0.65625zm17.332031 -2.78125l-3.25 0.578125q-0.15625 -0.96875 -0.75 -1.453125q-0.578125 -0.5 -1.5 -0.5q-1.234375 0 -1.96875 0.859375q-0.71875 0.84375 -0.71875 2.828125q0 2.21875 0.734375 3.140625q0.75 0.90625 2.0 0.90625q0.9375 0 1.53125 -0.53125q0.609375 -0.53125 0.84375 -1.828125l3.234375 0.546875q-0.5 2.21875 -1.9375 3.359375q-1.421875 1.140625 -3.828125 1.140625q-2.71875 0 -4.34375 -1.71875q-1.625 -1.734375 -1.625 -4.78125q0 -3.078125 1.625 -4.796875q1.625 -1.71875 4.40625 -1.71875q2.28125 0 3.609375 0.984375q1.34375 0.984375 1.9375 2.984375zm8.207031 -3.6875l0 2.625l-2.25 0l0 5.015625q0 1.53125 0.0625 1.78125q0.0625 0.25 0.28125 0.421875q0.234375 0.15625 0.5625 0.15625q0.453125 0 1.328125 -0.3125l0.28125 2.546875q-1.15625 0.5 -2.609375 0.5q-0.890625 0 -1.609375 -0.296875q-0.703125 -0.296875 -1.046875 -0.765625q-0.328125 -0.484375 -0.453125 -1.296875q-0.109375 -0.578125 -0.109375 -2.3125l0 -5.4375l-1.515625 0l0 -2.625l1.515625 0l0 -2.46875l3.3125 -1.921875l0 4.390625l2.25 0zm2.2734375 -1.6875l0 -3.046875l3.296875 0l0 3.046875l-3.296875 0zm0 14.140625l0 -12.453125l3.296875 0l0 12.453125l-3.296875 0zm5.9179688 -6.40625q0 -1.640625 0.796875 -3.171875q0.8125 -1.53125 2.296875 -2.34375q1.484375 -0.8125 3.3125 -0.8125q2.828125 0 4.625 1.84375q1.8125 1.828125 1.8125 4.625q0 2.828125 -1.828125 4.6875q-1.828125 1.859375 -4.59375 1.859375q-1.703125 0 -3.265625 -0.765625q-1.546875 -0.78125 -2.359375 -2.265625q-0.796875 -1.5 -0.796875 -3.65625zm3.375 0.1875q0 1.84375 0.875 2.828125q0.875 0.984375 2.171875 0.984375q1.28125 0 2.15625 -0.984375q0.875 -0.984375 0.875 -2.859375q0 -1.828125 -0.875 -2.8125q-0.875 -0.984375 -2.15625 -0.984375q-1.296875 0 -2.171875 0.984375q-0.875 0.984375 -0.875 2.84375zm23.363281 6.21875l-3.296875 0l0 -6.359375q0 -2.015625 -0.21875 -2.59375q-0.203125 -0.59375 -0.6875 -0.921875q-0.46875 -0.328125 -1.125 -0.328125q-0.859375 0 -1.546875 0.46875q-0.671875 0.46875 -0.921875 1.25q-0.25 0.765625 -0.25 2.84375l0 5.640625l-3.296875 0l0 -12.453125l3.0625 0l0 1.828125q1.625 -2.109375 4.09375 -2.109375q1.09375 0 1.984375 0.40625q0.90625 0.390625 1.375 1.0q0.46875 0.609375 0.640625 1.390625q0.1875 0.765625 0.1875 2.203125l0 7.734375z" fill-rule="nonzero"/><path fill="#000000" fill-opacity="0.0" d="m93.70079 36.360893l137.5433 260.25195" fill-rule="evenodd"/><path stroke="#000000" stroke-width="1.0" stroke-linejoin="round" stroke-linecap="butt" d="m93.70079 36.360893l134.73975 254.94724" fill-rule="evenodd"/><path fill="#000000" stroke="#000000" stroke-width="1.0" stroke-linecap="butt" d="m226.98021 292.07993l3.5807953 3.240448l-0.66012573 -4.784027z" fill-rule="evenodd"/><path fill="#000000" fill-opacity="0.0" d="m94.10236 159.46457l137.13385 158.33072" fill-rule="evenodd"/><path stroke="#000000" stroke-width="1.0" stroke-linejoin="round" stroke-linecap="butt" d="m94.10236 159.46457l133.20569 153.79535" fill-rule="evenodd"/><path fill="#000000" stroke="#000000" stroke-width="1.0" stroke-linecap="butt" d="m226.05951 314.3413l4.2196045 2.348938l-1.7225342 -4.5117188z" fill-rule="evenodd"/><path fill="#000000" fill-opacity="0.0" d="m93.70079 288.6916l135.46457 58.960632" fill-rule="evenodd"/><path stroke="#000000" stroke-width="1.0" stroke-linejoin="round" stroke-linecap="butt" d="m93.70079 288.6916l129.96309 56.56613" fill-rule="evenodd"/><path fill="#000000" stroke="#000000" stroke-width="1.0" stroke-linecap="butt" d="m223.00468 346.77222l4.820236 0.29660034l-3.5018768 -3.325592z" fill-rule="evenodd"/><path fill="#000000" fill-opacity="0.0" d="m102.82415 395.10208l126.33071 -47.46457" fill-rule="evenodd"/><path stroke="#000000" stroke-width="1.0" stroke-linejoin="round" stroke-linecap="butt" d="m102.82415 395.10208l120.71406 -45.35431" fill-rule="evenodd"/><path fill="#000000" stroke="#000000" stroke-width="1.0" stroke-linecap="butt" d="m224.11914 351.29398l3.667221 -3.1423035l-4.8290863 0.04989624z" fill-rule="evenodd"/><path fill="#000000" fill-opacity="0.0" d="m111.48294 483.2362l127.90552 -108.09448" fill-rule="evenodd"/><path stroke="#000000" stroke-width="1.0" stroke-linejoin="round" stroke-linecap="butt" d="m111.48294 483.2362l123.32283 -104.22162" fill-rule="evenodd"/><path fill="#000000" stroke="#000000" stroke-width="1.0" stroke-linecap="butt" d="m235.87193 380.27615l2.3999481 -4.190796l-4.532257 1.6676941z" fill-rule="evenodd"/><path fill="#000000" fill-opacity="0.0" d="m93.70079 599.9829l131.93701 -209.00784" fill-rule="evenodd"/><path stroke="#000000" stroke-width="1.0" stroke-linejoin="round" stroke-linecap="butt" d="m93.70079 599.9829l128.73422 -203.93414" fill-rule="evenodd"/><path fill="#000000" stroke="#000000" stroke-width="1.0" stroke-linecap="butt" d="m223.83174 396.93042l1.0256958 -4.7191467l-3.8191528 2.95578z" fill-rule="evenodd"/><path fill="#f4cccc" d="m423.34647 195.0315l16.220459 0l0 26.173233l-16.220459 0z" fill-rule="evenodd"/><path stroke="#000000" stroke-width="1.0" stroke-linejoin="round" stroke-linecap="butt" d="m423.34647 195.0315l16.220459 0l0 26.173233l-16.220459 0z" fill-rule="evenodd"/><path fill="#f4cccc" d="m439.56693 195.0315l16.22049 0l0 26.173233l-16.22049 0z" fill-rule="evenodd"/><path stroke="#000000" stroke-width="1.0" stroke-linejoin="round" stroke-linecap="butt" d="m439.56693 195.0315l16.22049 0l0 26.173233l-16.22049 0z" fill-rule="evenodd"/><path fill="#f4cccc" d="m455.7874 195.0315l16.220459 0l0 26.173233l-16.220459 0z" fill-rule="evenodd"/><path stroke="#000000" stroke-width="1.0" stroke-linejoin="round" stroke-linecap="butt" d="m455.7874 195.0315l16.220459 0l0 26.173233l-16.220459 0z" fill-rule="evenodd"/><path fill="#f4cccc" d="m488.22833 195.0315l-16.220459 0l0 26.173233l16.220459 0z" fill-rule="evenodd"/><path stroke="#000000" stroke-width="1.0" stroke-linejoin="round" stroke-linecap="butt" d="m488.22833 195.0315l-16.220459 0l0 26.173233l16.220459 0z" fill-rule="evenodd"/><path fill="#f4cccc" d="m504.44882 195.0315l-16.22049 0l0 26.173233l16.22049 0z" fill-rule="evenodd"/><path stroke="#000000" stroke-width="1.0" stroke-linejoin="round" stroke-linecap="butt" d="m504.44882 195.0315l-16.22049 0l0 26.173233l16.22049 0z" fill-rule="evenodd"/><path fill="#f4cccc" d="m520.6693 195.0315l-16.22049 0l0 26.173233l16.22049 0z" fill-rule="evenodd"/><path stroke="#000000" stroke-width="1.0" stroke-linejoin="round" stroke-linecap="butt" d="m520.6693 195.0315l-16.22049 0l0 26.173233l16.22049 0z" fill-rule="evenodd"/><path fill="#f4cccc" d="m520.6693 195.0315l16.220459 0l0 26.173233l-16.220459 0z" fill-rule="evenodd"/><path stroke="#000000" stroke-width="1.0" stroke-linejoin="round" stroke-linecap="butt" d="m520.6693 195.0315l16.220459 0l0 26.173233l-16.220459 0z" fill-rule="evenodd"/><path fill="#f4cccc" d="m536.8898 195.0315l16.220459 0l0 26.173233l-16.220459 0z" fill-rule="evenodd"/><path stroke="#000000" stroke-width="1.0" stroke-linejoin="round" stroke-linecap="butt" d="m536.8898 195.0315l16.220459 0l0 26.173233l-16.220459 0z" fill-rule="evenodd"/><path fill="#f4cccc" d="m553.1102 195.0315l16.220459 0l0 26.173233l-16.220459 0z" fill-rule="evenodd"/><path stroke="#000000" stroke-width="1.0" stroke-linejoin="round" stroke-linecap="butt" d="m553.1102 195.0315l16.220459 0l0 26.173233l-16.220459 0z" fill-rule="evenodd"/><path fill="#f4cccc" d="m585.5512 195.0315l-16.22052 0l0 26.173233l16.22052 0z" fill-rule="evenodd"/><path stroke="#000000" stroke-width="1.0" stroke-linejoin="round" stroke-linecap="butt" d="m585.5512 195.0315l-16.22052 0l0 26.173233l16.22052 0z" fill-rule="evenodd"/><path fill="#f4cccc" d="m601.77167 195.0315l-16.220459 0l0 26.173233l16.220459 0z" fill-rule="evenodd"/><path stroke="#000000" stroke-width="1.0" stroke-linejoin="round" stroke-linecap="butt" d="m601.77167 195.0315l-16.220459 0l0 26.173233l16.220459 0z" fill-rule="evenodd"/><path fill="#f4cccc" d="m617.9921 195.0315l-16.220459 0l0 26.173233l16.220459 0z" fill-rule="evenodd"/><path stroke="#000000" stroke-width="1.0" stroke-linejoin="round" stroke-linecap="butt" d="m617.9921 195.0315l-16.220459 0l0 26.173233l16.220459 0z" fill-rule="evenodd"/><path fill="#f4cccc" d="m423.34647 228.01575l16.220459 0l0 26.173233l-16.220459 0z" fill-rule="evenodd"/><path stroke="#000000" stroke-width="1.0" stroke-linejoin="round" stroke-linecap="butt" d="m423.34647 228.01575l16.220459 0l0 26.173233l-16.220459 0z" fill-rule="evenodd"/><path fill="#f4cccc" d="m439.56693 228.01575l16.22049 0l0 26.173233l-16.22049 0z" fill-rule="evenodd"/><path stroke="#000000" stroke-width="1.0" stroke-linejoin="round" stroke-linecap="butt" d="m439.56693 228.01575l16.22049 0l0 26.173233l-16.22049 0z" fill-rule="evenodd"/><path fill="#f4cccc" d="m455.7874 228.01575l16.220459 0l0 26.173233l-16.220459 0z" fill-rule="evenodd"/><path stroke="#000000" stroke-width="1.0" stroke-linejoin="round" stroke-linecap="butt" d="m455.7874 228.01575l16.220459 0l0 26.173233l-16.220459 0z" fill-rule="evenodd"/><path fill="#f4cccc" d="m488.22833 228.01575l-16.220459 0l0 26.173233l16.220459 0z" fill-rule="evenodd"/><path stroke="#000000" stroke-width="1.0" stroke-linejoin="round" stroke-linecap="butt" d="m488.22833 228.01575l-16.220459 0l0 26.173233l16.220459 0z" fill-rule="evenodd"/><path fill="#f4cccc" d="m504.44882 228.01575l-16.22049 0l0 26.173233l16.22049 0z" fill-rule="evenodd"/><path stroke="#000000" stroke-width="1.0" stroke-linejoin="round" stroke-linecap="butt" d="m504.44882 228.01575l-16.22049 0l0 26.173233l16.22049 0z" fill-rule="evenodd"/><path fill="#f4cccc" d="m520.6693 228.01575l-16.22049 0l0 26.173233l16.22049 0z" fill-rule="evenodd"/><path stroke="#000000" stroke-width="1.0" stroke-linejoin="round" stroke-linecap="butt" d="m520.6693 228.01575l-16.22049 0l0 26.173233l16.22049 0z" fill-rule="evenodd"/><path fill="#f4cccc" d="m520.6693 228.01575l16.220459 0l0 26.173233l-16.220459 0z" fill-rule="evenodd"/><path stroke="#000000" stroke-width="1.0" stroke-linejoin="round" stroke-linecap="butt" d="m520.6693 228.01575l16.220459 0l0 26.173233l-16.220459 0z" fill-rule="evenodd"/><path fill="#f4cccc" d="m536.8898 228.01575l16.220459 0l0 26.173233l-16.220459 0z" fill-rule="evenodd"/><path stroke="#000000" stroke-width="1.0" stroke-linejoin="round" stroke-linecap="butt" d="m536.8898 228.01575l16.220459 0l0 26.173233l-16.220459 0z" fill-rule="evenodd"/><path fill="#f4cccc" d="m553.1102 228.01575l16.220459 0l0 26.173233l-16.220459 0z" fill-rule="evenodd"/><path stroke="#000000" stroke-width="1.0" stroke-linejoin="round" stroke-linecap="butt" d="m553.1102 228.01575l16.220459 0l0 26.173233l-16.220459 0z" fill-rule="evenodd"/><path fill="#f4cccc" d="m585.5512 228.01575l-16.22052 0l0 26.173233l16.22052 0z" fill-rule="evenodd"/><path stroke="#000000" stroke-width="1.0" stroke-linejoin="round" stroke-linecap="butt" d="m585.5512 228.01575l-16.22052 0l0 26.173233l16.22052 0z" fill-rule="evenodd"/><path fill="#f4cccc" d="m601.77167 228.01575l-16.220459 0l0 26.173233l16.220459 0z" fill-rule="evenodd"/><path stroke="#000000" stroke-width="1.0" stroke-linejoin="round" stroke-linecap="butt" d="m601.77167 228.01575l-16.220459 0l0 26.173233l16.220459 0z" fill-rule="evenodd"/><path fill="#f4cccc" d="m617.9921 228.01575l-16.220459 0l0 26.173233l16.220459 0z" fill-rule="evenodd"/><path stroke="#000000" stroke-width="1.0" stroke-linejoin="round" stroke-linecap="butt" d="m617.9921 228.01575l-16.220459 0l0 26.173233l16.220459 0z" fill-rule="evenodd"/><path fill="#f4cccc" d="m423.34647 265.3386l16.220459 0l0 26.173218l-16.220459 0z" fill-rule="evenodd"/><path stroke="#000000" stroke-width="1.0" stroke-linejoin="round" stroke-linecap="butt" d="m423.34647 265.3386l16.220459 0l0 26.173218l-16.220459 0z" fill-rule="evenodd"/><path fill="#f4cccc" d="m439.56693 265.3386l16.22049 0l0 26.173218l-16.22049 0z" fill-rule="evenodd"/><path stroke="#000000" stroke-width="1.0" stroke-linejoin="round" stroke-linecap="butt" d="m439.56693 265.3386l16.22049 0l0 26.173218l-16.22049 0z" fill-rule="evenodd"/><path fill="#f4cccc" d="m455.7874 265.3386l16.220459 0l0 26.173218l-16.220459 0z" fill-rule="evenodd"/><path stroke="#000000" stroke-width="1.0" stroke-linejoin="round" stroke-linecap="butt" d="m455.7874 265.3386l16.220459 0l0 26.173218l-16.220459 0z" fill-rule="evenodd"/><path fill="#f4cccc" d="m488.22833 265.3386l-16.220459 0l0 26.173218l16.220459 0z" fill-rule="evenodd"/><path stroke="#000000" stroke-width="1.0" stroke-linejoin="round" stroke-linecap="butt" d="m488.22833 265.3386l-16.220459 0l0 26.173218l16.220459 0z" fill-rule="evenodd"/><path fill="#f4cccc" d="m504.44882 265.3386l-16.22049 0l0 26.173218l16.22049 0z" fill-rule="evenodd"/><path stroke="#000000" stroke-width="1.0" stroke-linejoin="round" stroke-linecap="butt" d="m504.44882 265.3386l-16.22049 0l0 26.173218l16.22049 0z" fill-rule="evenodd"/><path fill="#f4cccc" d="m520.6693 265.3386l-16.22049 0l0 26.173218l16.22049 0z" fill-rule="evenodd"/><path stroke="#000000" stroke-width="1.0" stroke-linejoin="round" stroke-linecap="butt" d="m520.6693 265.3386l-16.22049 0l0 26.173218l16.22049 0z" fill-rule="evenodd"/><path fill="#f4cccc" d="m520.6693 265.3386l16.220459 0l0 26.173218l-16.220459 0z" fill-rule="evenodd"/><path stroke="#000000" stroke-width="1.0" stroke-linejoin="round" stroke-linecap="butt" d="m520.6693 265.3386l16.220459 0l0 26.173218l-16.220459 0z" fill-rule="evenodd"/><path fill="#f4cccc" d="m536.8898 265.3386l16.220459 0l0 26.173218l-16.220459 0z" fill-rule="evenodd"/><path stroke="#000000" stroke-width="1.0" stroke-linejoin="round" stroke-linecap="butt" d="m536.8898 265.3386l16.220459 0l0 26.173218l-16.220459 0z" fill-rule="evenodd"/><path fill="#f4cccc" d="m553.1102 265.3386l16.220459 0l0 26.173218l-16.220459 0z" fill-rule="evenodd"/><path stroke="#000000" stroke-width="1.0" stroke-linejoin="round" stroke-linecap="butt" d="m553.1102 265.3386l16.220459 0l0 26.173218l-16.220459 0z" fill-rule="evenodd"/><path fill="#f4cccc" d="m585.5512 265.3386l-16.22052 0l0 26.173218l16.22052 0z" fill-rule="evenodd"/><path stroke="#000000" stroke-width="1.0" stroke-linejoin="round" stroke-linecap="butt" d="m585.5512 265.3386l-16.22052 0l0 26.173218l16.22052 0z" fill-rule="evenodd"/><path fill="#f4cccc" d="m601.77167 265.3386l-16.220459 0l0 26.173218l16.220459 0z" fill-rule="evenodd"/><path stroke="#000000" stroke-width="1.0" stroke-linejoin="round" stroke-linecap="butt" d="m601.77167 265.3386l-16.220459 0l0 26.173218l16.220459 0z" fill-rule="evenodd"/><path fill="#f4cccc" d="m617.9921 265.3386l-16.220459 0l0 26.173218l16.220459 0z" fill-rule="evenodd"/><path stroke="#000000" stroke-width="1.0" stroke-linejoin="round" stroke-linecap="butt" d="m617.9921 265.3386l-16.220459 0l0 26.173218l16.220459 0z" fill-rule="evenodd"/><path fill="#f4cccc" d="m423.34647 449.34647l16.220459 0l0 26.173218l-16.220459 0z" fill-rule="evenodd"/><path stroke="#000000" stroke-width="1.0" stroke-linejoin="round" stroke-linecap="butt" d="m423.34647 449.34647l16.220459 0l0 26.173218l-16.220459 0z" fill-rule="evenodd"/><path fill="#f4cccc" d="m439.56693 449.34647l16.22049 0l0 26.173218l-16.22049 0z" fill-rule="evenodd"/><path stroke="#000000" stroke-width="1.0" stroke-linejoin="round" stroke-linecap="butt" d="m439.56693 449.34647l16.22049 0l0 26.173218l-16.22049 0z" fill-rule="evenodd"/><path fill="#f4cccc" d="m455.7874 449.34647l16.220459 0l0 26.173218l-16.220459 0z" fill-rule="evenodd"/><path stroke="#000000" stroke-width="1.0" stroke-linejoin="round" stroke-linecap="butt" d="m455.7874 449.34647l16.220459 0l0 26.173218l-16.220459 0z" fill-rule="evenodd"/><path fill="#f4cccc" d="m488.22833 449.34647l-16.220459 0l0 26.173218l16.220459 0z" fill-rule="evenodd"/><path stroke="#000000" stroke-width="1.0" stroke-linejoin="round" stroke-linecap="butt" d="m488.22833 449.34647l-16.220459 0l0 26.173218l16.220459 0z" fill-rule="evenodd"/><path fill="#f4cccc" d="m504.44882 449.34647l-16.22049 0l0 26.173218l16.22049 0z" fill-rule="evenodd"/><path stroke="#000000" stroke-width="1.0" stroke-linejoin="round" stroke-linecap="butt" d="m504.44882 449.34647l-16.22049 0l0 26.173218l16.22049 0z" fill-rule="evenodd"/><path fill="#f4cccc" d="m520.6693 449.34647l-16.22049 0l0 26.173218l16.22049 0z" fill-rule="evenodd"/><path stroke="#000000" stroke-width="1.0" stroke-linejoin="round" stroke-linecap="butt" d="m520.6693 449.34647l-16.22049 0l0 26.173218l16.22049 0z" fill-rule="evenodd"/><path fill="#f4cccc" d="m520.6693 449.34647l16.220459 0l0 26.173218l-16.220459 0z" fill-rule="evenodd"/><path stroke="#000000" stroke-width="1.0" stroke-linejoin="round" stroke-linecap="butt" d="m520.6693 449.34647l16.220459 0l0 26.173218l-16.220459 0z" fill-rule="evenodd"/><path fill="#f4cccc" d="m536.8898 449.34647l16.220459 0l0 26.173218l-16.220459 0z" fill-rule="evenodd"/><path stroke="#000000" stroke-width="1.0" stroke-linejoin="round" stroke-linecap="butt" d="m536.8898 449.34647l16.220459 0l0 26.173218l-16.220459 0z" fill-rule="evenodd"/><path fill="#f4cccc" d="m553.1102 449.34647l16.220459 0l0 26.173218l-16.220459 0z" fill-rule="evenodd"/><path stroke="#000000" stroke-width="1.0" stroke-linejoin="round" stroke-linecap="butt" d="m553.1102 449.34647l16.220459 0l0 26.173218l-16.220459 0z" fill-rule="evenodd"/><path fill="#f4cccc" d="m585.5512 449.34647l-16.22052 0l0 26.173218l16.22052 0z" fill-rule="evenodd"/><path stroke="#000000" stroke-width="1.0" stroke-linejoin="round" stroke-linecap="butt" d="m585.5512 449.34647l-16.22052 0l0 26.173218l16.22052 0z" fill-rule="evenodd"/><path fill="#f4cccc" d="m601.77167 449.34647l-16.220459 0l0 26.173218l16.220459 0z" fill-rule="evenodd"/><path stroke="#000000" stroke-width="1.0" stroke-linejoin="round" stroke-linecap="butt" d="m601.77167 449.34647l-16.220459 0l0 26.173218l16.220459 0z" fill-rule="evenodd"/><path fill="#f4cccc" d="m617.9921 449.34647l-16.220459 0l0 26.173218l16.220459 0z" fill-rule="evenodd"/><path stroke="#000000" stroke-width="1.0" stroke-linejoin="round" stroke-linecap="butt" d="m617.9921 449.34647l-16.220459 0l0 26.173218l16.220459 0z" fill-rule="evenodd"/><path fill="#f4cccc" d="m423.34647 485.70865l16.220459 0l0 26.173248l-16.220459 0z" fill-rule="evenodd"/><path stroke="#000000" stroke-width="1.0" stroke-linejoin="round" stroke-linecap="butt" d="m423.34647 485.70865l16.220459 0l0 26.173248l-16.220459 0z" fill-rule="evenodd"/><path fill="#f4cccc" d="m439.56693 485.70865l16.22049 0l0 26.173248l-16.22049 0z" fill-rule="evenodd"/><path stroke="#000000" stroke-width="1.0" stroke-linejoin="round" stroke-linecap="butt" d="m439.56693 485.70865l16.22049 0l0 26.173248l-16.22049 0z" fill-rule="evenodd"/><path fill="#f4cccc" d="m455.7874 485.70865l16.220459 0l0 26.173248l-16.220459 0z" fill-rule="evenodd"/><path stroke="#000000" stroke-width="1.0" stroke-linejoin="round" stroke-linecap="butt" d="m455.7874 485.70865l16.220459 0l0 26.173248l-16.220459 0z" fill-rule="evenodd"/><path fill="#f4cccc" d="m488.22833 485.70865l-16.220459 0l0 26.173248l16.220459 0z" fill-rule="evenodd"/><path stroke="#000000" stroke-width="1.0" stroke-linejoin="round" stroke-linecap="butt" d="m488.22833 485.70865l-16.220459 0l0 26.173248l16.220459 0z" fill-rule="evenodd"/><path fill="#f4cccc" d="m504.44882 485.70865l-16.22049 0l0 26.173248l16.22049 0z" fill-rule="evenodd"/><path stroke="#000000" stroke-width="1.0" stroke-linejoin="round" stroke-linecap="butt" d="m504.44882 485.70865l-16.22049 0l0 26.173248l16.22049 0z" fill-rule="evenodd"/><path fill="#f4cccc" d="m520.6693 485.70865l-16.22049 0l0 26.173248l16.22049 0z" fill-rule="evenodd"/><path stroke="#000000" stroke-width="1.0" stroke-linejoin="round" stroke-linecap="butt" d="m520.6693 485.70865l-16.22049 0l0 26.173248l16.22049 0z" fill-rule="evenodd"/><path fill="#f4cccc" d="m520.6693 485.70865l16.220459 0l0 26.173248l-16.220459 0z" fill-rule="evenodd"/><path stroke="#000000" stroke-width="1.0" stroke-linejoin="round" stroke-linecap="butt" d="m520.6693 485.70865l16.220459 0l0 26.173248l-16.220459 0z" fill-rule="evenodd"/><path fill="#f4cccc" d="m536.8898 485.70865l16.220459 0l0 26.173248l-16.220459 0z" fill-rule="evenodd"/><path stroke="#000000" stroke-width="1.0" stroke-linejoin="round" stroke-linecap="butt" d="m536.8898 485.70865l16.220459 0l0 26.173248l-16.220459 0z" fill-rule="evenodd"/><path fill="#f4cccc" d="m553.1102 485.70865l16.220459 0l0 26.173248l-16.220459 0z" fill-rule="evenodd"/><path stroke="#000000" stroke-width="1.0" stroke-linejoin="round" stroke-linecap="butt" d="m553.1102 485.70865l16.220459 0l0 26.173248l-16.220459 0z" fill-rule="evenodd"/><path fill="#f4cccc" d="m585.5512 485.70865l-16.22052 0l0 26.173248l16.22052 0z" fill-rule="evenodd"/><path stroke="#000000" stroke-width="1.0" stroke-linejoin="round" stroke-linecap="butt" d="m585.5512 485.70865l-16.22052 0l0 26.173248l16.22052 0z" fill-rule="evenodd"/><path fill="#f4cccc" d="m601.77167 485.70865l-16.220459 0l0 26.173248l16.220459 0z" fill-rule="evenodd"/><path stroke="#000000" stroke-width="1.0" stroke-linejoin="round" stroke-linecap="butt" d="m601.77167 485.70865l-16.220459 0l0 26.173248l16.220459 0z" fill-rule="evenodd"/><path fill="#f4cccc" d="m617.9921 485.70865l-16.220459 0l0 26.173248l16.220459 0z" fill-rule="evenodd"/><path stroke="#000000" stroke-width="1.0" stroke-linejoin="round" stroke-linecap="butt" d="m617.9921 485.70865l-16.220459 0l0 26.173248l16.220459 0z" fill-rule="evenodd"/><path fill="#000000" fill-opacity="0.0" d="m473.8189 334.0656l93.700806 0l0 72.72443l-93.700806 0z" fill-rule="evenodd"/><path fill="#000000" d="m503.8099 385.3056l0 -4.40625l4.40625 0l0 4.40625l-4.40625 0zm14.6719055 0l0 -4.40625l4.40625 0l0 4.40625l-4.40625 0zm14.65625 0l0 -4.40625l4.421875 0l0 4.40625l-4.421875 0z" fill-rule="nonzero"/><path fill="#f9cb9c" d="m677.8924 262.57285l0 0c0 -5.6565857 4.5855713 -10.242142 10.242126 -10.242142l121.21649 0c2.7164307 0 5.321533 1.0790863 7.2423096 2.9998627c1.9207764 1.9207764 2.999878 4.525879 2.999878 7.242279l0 170.12991c0 5.656555 -4.5855713 10.242126 -10.2421875 10.242126l-121.21649 0c-5.656555 0 -10.242126 -4.5855713 -10.242126 -10.242126z" fill-rule="evenodd"/><path stroke="#000000" stroke-width="2.0" stroke-linejoin="round" stroke-linecap="butt" d="m677.8924 262.57285l0 0c0 -5.6565857 4.5855713 -10.242142 10.242126 -10.242142l121.21649 0c2.7164307 0 5.321533 1.0790863 7.2423096 2.9998627c1.9207764 1.9207764 2.999878 4.525879 2.999878 7.242279l0 170.12991c0 5.656555 -4.5855713 10.242126 -10.2421875 10.242126l-121.21649 0c-5.656555 0 -10.242126 -4.5855713 -10.242126 -10.242126z" fill-rule="evenodd"/><path fill="#fff2cc" d="m894.10236 263.97583l0 0c0 -6.4227295 5.206665 -11.629379 11.629395 -11.629379l118.441956 0c3.0843506 0 6.0423584 1.225235 8.223267 3.4061737c2.1809082 2.1809387 3.406128 5.138916 3.406128 8.223206l0 167.35541c0 6.4227295 -5.206543 11.629395 -11.629395 11.629395l-118.441956 0c-6.4227295 0 -11.629395 -5.206665 -11.629395 -11.629395z" fill-rule="evenodd"/><path stroke="#000000" stroke-width="2.0" stroke-linejoin="round" stroke-linecap="butt" d="m894.10236 263.97583l0 0c0 -6.4227295 5.206665 -11.629379 11.629395 -11.629379l118.441956 0c3.0843506 0 6.0423584 1.225235 8.223267 3.4061737c2.1809082 2.1809387 3.406128 5.138916 3.406128 8.223206l0 167.35541c0 6.4227295 -5.206543 11.629395 -11.629395 11.629395l-118.441956 0c-6.4227295 0 -11.629395 -5.206665 -11.629395 -11.629395z" fill-rule="evenodd"/><path fill="#000000" fill-opacity="0.0" d="m670.4816 305.00787l159.59058 0l0 77.5748l-159.59058 0z" fill-rule="evenodd"/><path fill="#000000" d="m722.67535 330.73538l0 -2.90625l7.484375 0l0 6.84375q-1.09375 1.0625 -3.171875 1.875q-2.0625 0.796875 -4.171875 0.796875q-2.703125 0 -4.703125 -1.125q-2.0 -1.140625 -3.015625 -3.234375q-1.0 -2.109375 -1.0 -4.59375q0 -2.671875 1.125 -4.75q1.125 -2.09375 3.28125 -3.21875q1.65625 -0.84375 4.125 -0.84375q3.1875 0 4.984375 1.34375q1.8125 1.328125 2.328125 3.703125l-3.453125 0.640625q-0.359375 -1.265625 -1.359375 -2.0q-1.0 -0.734375 -2.5 -0.734375q-2.28125 0 -3.625 1.453125q-1.34375 1.4375 -1.34375 4.265625q0 3.0625 1.359375 4.59375q1.359375 1.53125 3.5625 1.53125q1.09375 0 2.1875 -0.421875q1.09375 -0.4375 1.890625 -1.046875l0 -2.171875l-3.984375 0zm10.652344 6.3125l0 -17.1875l3.296875 0l0 17.1875l-3.296875 0zm5.9179688 -6.40625q0 -1.640625 0.796875 -3.171875q0.8125 -1.53125 2.296875 -2.34375q1.484375 -0.8125 3.3125 -0.8125q2.828125 0 4.625 1.84375q1.8125 1.828125 1.8125 4.625q0 2.828125 -1.828125 4.6875q-1.828125 1.859375 -4.59375 1.859375q-1.703125 0 -3.265625 -0.765625q-1.546875 -0.78125 -2.359375 -2.265625q-0.796875 -1.5 -0.796875 -3.65625zm3.375 0.1875q0 1.84375 0.875 2.828125q0.875 0.984375 2.171875 0.984375q1.28125 0 2.15625 -0.984375q0.875 -0.984375 0.875 -2.859375q0 -1.828125 -0.875 -2.8125q-0.875 -0.984375 -2.15625 -0.984375q-1.296875 0 -2.171875 0.984375q-0.875 0.984375 -0.875 2.84375zm11.894531 6.21875l0 -17.1875l3.296875 0l0 6.1875q1.53125 -1.734375 3.609375 -1.734375q2.28125 0 3.765625 1.65625q1.484375 1.640625 1.484375 4.71875q0 3.1875 -1.515625 4.921875q-1.515625 1.71875 -3.6875 1.71875q-1.0625 0 -2.109375 -0.53125q-1.03125 -0.53125 -1.78125 -1.578125l0 1.828125l-3.0625 0zm3.28125 -6.5q0 1.9375 0.609375 2.859375q0.84375 1.3125 2.265625 1.3125q1.09375 0 1.859375 -0.921875q0.765625 -0.9375 0.765625 -2.9375q0 -2.140625 -0.78125 -3.078125q-0.765625 -0.9375 -1.96875 -0.9375q-1.1875 0 -1.96875 0.921875q-0.78125 0.90625 -0.78125 2.78125zm13.988281 -2.15625l-2.984375 -0.53125q0.5 -1.8125 1.71875 -2.671875q1.234375 -0.875 3.671875 -0.875q2.203125 0 3.28125 0.53125q1.078125 0.515625 1.515625 1.328125q0.4375 0.796875 0.4375 2.9375l-0.03125 3.84375q0 1.640625 0.15625 2.421875q0.15625 0.78125 0.59375 1.671875l-3.265625 0q-0.125 -0.328125 -0.3125 -0.96875q-0.078125 -0.296875 -0.125 -0.390625q-0.84375 0.8125 -1.8125 1.234375q-0.953125 0.40625 -2.03125 0.40625q-1.921875 0 -3.03125 -1.046875q-1.109375 -1.046875 -1.109375 -2.640625q0 -1.046875 0.5 -1.875q0.5 -0.828125 1.40625 -1.265625q0.921875 -0.4375 2.625 -0.765625q2.3125 -0.4375 3.203125 -0.8125l0 -0.328125q0 -0.953125 -0.46875 -1.34375q-0.46875 -0.40625 -1.765625 -0.40625q-0.890625 0 -1.390625 0.34375q-0.484375 0.34375 -0.78125 1.203125zm4.40625 2.671875q-0.640625 0.21875 -2.015625 0.515625q-1.359375 0.28125 -1.78125 0.5625q-0.640625 0.46875 -0.640625 1.171875q0 0.6875 0.515625 1.1875q0.515625 0.5 1.3125 0.5q0.890625 0 1.6875 -0.578125q0.609375 -0.453125 0.796875 -1.09375q0.125 -0.421875 0.125 -1.609375l0 -0.65625zm6.4726562 5.984375l0 -17.1875l3.296875 0l0 17.1875l-3.296875 0z" fill-rule="nonzero"/><path fill="#000000" d="m699.316 365.84787l0 -17.1875l5.1875 0l3.125 11.71875l3.078125 -11.71875l5.203125 0l0 17.1875l-3.21875 0l0 -13.53125l-3.421875 13.53125l-3.328125 0l-3.40625 -13.53125l0 13.53125l-3.21875 0zm22.476562 -8.65625l-2.984375 -0.53125q0.5 -1.8125 1.71875 -2.671875q1.234375 -0.875 3.671875 -0.875q2.203125 0 3.28125 0.53125q1.078125 0.515625 1.515625 1.328125q0.4375 0.796875 0.4375 2.9375l-0.03125 3.84375q0 1.640625 0.15625 2.421875q0.15625 0.78125 0.59375 1.671875l-3.265625 0q-0.125 -0.328125 -0.3125 -0.96875q-0.078125 -0.296875 -0.125 -0.390625q-0.84375 0.8125 -1.8125 1.234375q-0.953125 0.40625 -2.03125 0.40625q-1.921875 0 -3.03125 -1.046875q-1.109375 -1.046875 -1.109375 -2.640625q0 -1.046875 0.5 -1.875q0.5 -0.828125 1.40625 -1.265625q0.921875 -0.4375 2.625 -0.765625q2.3125 -0.4375 3.203125 -0.8125l0 -0.328125q0 -0.953125 -0.46875 -1.34375q-0.46875 -0.40625 -1.765625 -0.40625q-0.890625 0 -1.390625 0.34375q-0.484375 0.34375 -0.78125 1.203125zm4.40625 2.671875q-0.640625 0.21875 -2.015625 0.515625q-1.359375 0.28125 -1.78125 0.5625q-0.640625 0.46875 -0.640625 1.171875q0 0.6875 0.515625 1.1875q0.515625 0.5 1.3125 0.5q0.890625 0 1.6875 -0.578125q0.609375 -0.453125 0.796875 -1.09375q0.125 -0.421875 0.125 -1.609375l0 -0.65625zm12.191406 -6.46875l0 2.625l-2.25 0l0 5.015625q0 1.53125 0.0625 1.78125q0.0625 0.25 0.28125 0.421875q0.234375 0.15625 0.5625 0.15625q0.453125 0 1.328125 -0.3125l0.28125 2.546875q-1.15625 0.5 -2.609375 0.5q-0.890625 0 -1.609375 -0.296875q-0.703125 -0.296875 -1.046875 -0.765625q-0.328125 -0.484375 -0.453125 -1.296875q-0.109375 -0.578125 -0.109375 -2.3125l0 -5.4375l-1.515625 0l0 -2.625l1.515625 0l0 -2.46875l3.3125 -1.921875l0 4.390625l2.25 0zm13.1328125 3.6875l-3.25 0.578125q-0.15625 -0.96875 -0.75 -1.453125q-0.578125 -0.5 -1.5 -0.5q-1.234375 0 -1.96875 0.859375q-0.71875 0.84375 -0.71875 2.828125q0 2.21875 0.734375 3.140625q0.75 0.90625 2.0 0.90625q0.9375 0 1.53125 -0.53125q0.609375 -0.53125 0.84375 -1.828125l3.234375 0.546875q-0.5 2.21875 -1.9375 3.359375q-1.421875 1.140625 -3.828125 1.140625q-2.71875 0 -4.34375 -1.71875q-1.625 -1.734375 -1.625 -4.78125q0 -3.078125 1.625 -4.796875q1.625 -1.71875 4.40625 -1.71875q2.28125 0 3.609375 0.984375q1.34375 0.984375 1.9375 2.984375zm5.7695312 -8.421875l0 6.328125q1.59375 -1.875 3.8125 -1.875q1.140625 0 2.046875 0.421875q0.921875 0.421875 1.375 1.078125q0.46875 0.65625 0.640625 1.453125q0.171875 0.796875 0.171875 2.484375l0 7.296875l-3.296875 0l0 -6.578125q0 -1.953125 -0.1875 -2.484375q-0.1875 -0.53125 -0.671875 -0.828125q-0.46875 -0.3125 -1.171875 -0.3125q-0.828125 0 -1.46875 0.40625q-0.640625 0.390625 -0.953125 1.1875q-0.296875 0.796875 -0.296875 2.375l0 6.234375l-3.28125 0l0 -17.1875l3.28125 0zm11.378906 3.046875l0 -3.046875l3.296875 0l0 3.046875l-3.296875 0zm0 14.140625l0 -12.453125l3.296875 0l0 12.453125l-3.296875 0zm17.996094 0l-3.296875 0l0 -6.359375q0 -2.015625 -0.21875 -2.59375q-0.203125 -0.59375 -0.6875 -0.921875q-0.46875 -0.328125 -1.125 -0.328125q-0.859375 0 -1.546875 0.46875q-0.671875 0.46875 -0.921875 1.25q-0.25 0.765625 -0.25 2.84375l0 5.640625l-3.296875 0l0 -12.453125l3.0625 0l0 1.828125q1.625 -2.109375 4.09375 -2.109375q1.09375 0 1.984375 0.40625q0.90625 0.390625 1.375 1.0q0.46875 0.609375 0.640625 1.390625q0.1875 0.765625 0.1875 2.203125l0 7.734375zm3.0351562 0.828125l3.765625 0.453125q0.09375 0.65625 0.421875 0.90625q0.46875 0.34375 1.484375 0.34375q1.28125 0 1.9375 -0.390625q0.421875 -0.25 0.65625 -0.828125q0.140625 -0.40625 0.140625 -1.515625l0 -1.8125q-1.46875 2.015625 -3.71875 2.015625q-2.515625 0 -3.96875 -2.125q-1.15625 -1.671875 -1.15625 -4.171875q0 -3.125 1.5 -4.78125q1.515625 -1.65625 3.75 -1.65625q2.3125 0 3.8125 2.03125l0 -1.75l3.078125 0l0 11.171875q0 2.203125 -0.359375 3.296875q-0.359375 1.09375 -1.015625 1.703125q-0.65625 0.625 -1.765625 0.96875q-1.09375 0.359375 -2.765625 0.359375q-3.15625 0 -4.484375 -1.078125q-1.328125 -1.078125 -1.328125 -2.75q0 -0.15625 0.015625 -0.390625zm2.9375 -7.3125q0 1.984375 0.765625 2.90625q0.765625 0.921875 1.890625 0.921875q1.21875 0 2.046875 -0.9375q0.828125 -0.953125 0.828125 -2.8125q0 -1.921875 -0.796875 -2.859375q-0.796875 -0.9375 -2.015625 -0.9375q-1.1875 0 -1.953125 0.921875q-0.765625 0.90625 -0.765625 2.796875z" fill-rule="nonzero"/><path fill="#000000" fill-opacity="0.0" d="m886.04333 322.61417l159.59058 0l0 48.472443l-159.59058 0z" fill-rule="evenodd"/><path fill="#000000" d="m924.4089 354.65417l-3.765625 0l-1.5 -3.90625l-6.875 0l-1.40625 3.90625l-3.6875 0l6.6875 -17.1875l3.671875 0l6.875 17.1875zm-6.375 -6.796875l-2.375 -6.375l-2.3125 6.375l4.6875 0zm8.191406 6.796875l0 -17.1875l3.296875 0l0 17.1875l-3.296875 0zm6.6679688 -14.140625l0 -3.046875l3.296875 0l0 3.046875l-3.296875 0zm0 14.140625l0 -12.453125l3.296875 0l0 12.453125l-3.296875 0zm6.3710938 0.828125l3.765625 0.453125q0.09375 0.65625 0.421875 0.90625q0.46875 0.34375 1.484375 0.34375q1.28125 0 1.9375 -0.390625q0.421875 -0.25 0.65625 -0.828125q0.140625 -0.40625 0.140625 -1.515625l0 -1.8125q-1.46875 2.015625 -3.71875 2.015625q-2.515625 0 -3.96875 -2.125q-1.15625 -1.671875 -1.15625 -4.171875q0 -3.125 1.5 -4.78125q1.515625 -1.65625 3.75 -1.65625q2.3125 0 3.8125 2.03125l0 -1.75l3.078125 0l0 11.171875q0 2.203125 -0.359375 3.296875q-0.359375 1.09375 -1.015625 1.703125q-0.65625 0.625 -1.765625 0.96875q-1.09375 0.359375 -2.765625 0.359375q-3.15625 0 -4.484375 -1.078125q-1.328125 -1.078125 -1.328125 -2.75q0 -0.15625 0.015625 -0.390625zm2.9375 -7.3125q0 1.984375 0.765625 2.90625q0.765625 0.921875 1.890625 0.921875q1.21875 0 2.046875 -0.9375q0.828125 -0.953125 0.828125 -2.8125q0 -1.921875 -0.796875 -2.859375q-0.796875 -0.9375 -2.015625 -0.9375q-1.1875 0 -1.953125 0.921875q-0.765625 0.90625 -0.765625 2.796875zm23.347656 6.484375l-3.296875 0l0 -6.359375q0 -2.015625 -0.21875 -2.59375q-0.203125 -0.59375 -0.6875 -0.921875q-0.46875 -0.328125 -1.125 -0.328125q-0.859375 0 -1.546875 0.46875q-0.671875 0.46875 -0.921875 1.25q-0.25 0.765625 -0.25 2.84375l0 5.640625l-3.296875 0l0 -12.453125l3.0625 0l0 1.828125q1.625 -2.109375 4.09375 -2.109375q1.09375 0 1.984375 0.40625q0.90625 0.390625 1.375 1.0q0.46875 0.609375 0.640625 1.390625q0.1875 0.765625 0.1875 2.203125l0 7.734375zm3.0976562 -12.453125l3.03125 0l0 1.703125q1.625 -1.984375 3.875 -1.984375q1.203125 0 2.078125 0.5q0.875 0.484375 1.4375 1.484375q0.828125 -1.0 1.765625 -1.484375q0.953125 -0.5 2.03125 -0.5q1.375 0 2.3125 0.5625q0.953125 0.5625 1.421875 1.640625q0.34375 0.796875 0.34375 2.578125l0 7.953125l-3.296875 0l0 -7.109375q0 -1.859375 -0.328125 -2.390625q-0.46875 -0.703125 -1.40625 -0.703125q-0.703125 0 -1.3125 0.421875q-0.609375 0.421875 -0.875 1.234375q-0.265625 0.8125 -0.265625 2.5625l0 5.984375l-3.296875 0l0 -6.828125q0 -1.8125 -0.171875 -2.328125q-0.171875 -0.53125 -0.546875 -0.78125q-0.375 -0.265625 -1.0 -0.265625q-0.765625 0 -1.375 0.40625q-0.609375 0.40625 -0.875 1.1875q-0.265625 0.765625 -0.265625 2.5625l0 6.046875l-3.28125 0l0 -12.453125zm28.792969 8.484375l3.28125 0.5625q-0.640625 1.796875 -2.015625 2.75q-1.359375 0.9375 -3.40625 0.9375q-3.25 0 -4.796875 -2.125q-1.234375 -1.703125 -1.234375 -4.28125q0 -3.09375 1.609375 -4.84375q1.625 -1.765625 4.09375 -1.765625q2.78125 0 4.375 1.84375q1.609375 1.828125 1.546875 5.609375l-8.25 0q0.03125 1.46875 0.796875 2.28125q0.765625 0.8125 1.890625 0.8125q0.78125 0 1.296875 -0.421875q0.53125 -0.421875 0.8125 -1.359375zm0.1875 -3.328125q-0.046875 -1.421875 -0.75 -2.15625q-0.703125 -0.75 -1.703125 -0.75q-1.078125 0 -1.78125 0.78125q-0.703125 0.78125 -0.6875 2.125l4.921875 0zm17.269531 7.296875l-3.296875 0l0 -6.359375q0 -2.015625 -0.21875 -2.59375q-0.203125 -0.59375 -0.6875 -0.921875q-0.46875 -0.328125 -1.125 -0.328125q-0.859375 0 -1.546875 0.46875q-0.671875 0.46875 -0.921875 1.25q-0.25 0.765625 -0.25 2.84375l0 5.640625l-3.296875 0l0 -12.453125l3.0625 0l0 1.828125q1.625 -2.109375 4.09375 -2.109375q1.09375 0 1.984375 0.40625q0.90625 0.390625 1.375 1.0q0.46875 0.609375 0.640625 1.390625q0.1875 0.765625 0.1875 2.203125l0 7.734375zm9.050781 -12.453125l0 2.625l-2.25 0l0 5.015625q0 1.53125 0.0625 1.78125q0.0625 0.25 0.28125 0.421875q0.234375 0.15625 0.5625 0.15625q0.453125 0 1.328125 -0.3125l0.28131104 2.546875q-1.156311 0.5 -2.609436 0.5q-0.890625 0 -1.609375 -0.296875q-0.703125 -0.296875 -1.046875 -0.765625q-0.328125 -0.484375 -0.453125 -1.296875q-0.109375 -0.578125 -0.109375 -2.3125l0 -5.4375l-1.515625 0l0 -2.625l1.515625 0l0 -2.46875l3.3125 -1.921875l0 4.390625l2.25 0z" fill-rule="nonzero"/><path fill="#000000" fill-opacity="0.0" d="m1110.3124 159.46457l237.22827 0l0 339.3701l-237.22827 0z" fill-rule="evenodd"/><path fill="#000000" d="m1200.7117 211.28268q-3.109375 0 -5.921875 -0.65625q-2.8125 -0.65625 -5.515625 -2.0l1.03125 -4.890625l0.296875 0q2.0625 1.96875 5.046875 3.015625q3.0 1.03125 5.796875 1.03125q4.578125 0 7.015625 -1.8125q2.4375 -1.8125 2.4375 -4.640625q0 -1.46875 -0.875 -2.453125q-0.859375 -1.0 -2.53125 -1.46875q-1.40625 -0.390625 -3.328125 -0.734375q-1.921875 -0.359375 -3.65625 -0.765625q-3.375 -0.765625 -5.234375 -2.578125q-1.84375 -1.828125 -1.84375 -4.546875q0 -4.5625 3.875 -7.609375q3.890625 -3.046875 10.03125 -3.046875q3.34375 0 6.078125 0.703125q2.75 0.703125 4.734375 1.640625l-0.96875 4.578125l-0.3125 0q-1.515625 -1.390625 -4.34375 -2.390625q-2.828125 -1.015625 -5.9375 -1.015625q-3.90625 0 -6.25 1.71875q-2.328125 1.71875 -2.328125 4.359375q0 1.40625 0.828125 2.484375q0.84375 1.078125 3.0 1.609375q1.375 0.328125 3.640625 0.796875q2.28125 0.453125 3.828125 0.859375q3.0625 0.84375 4.640625 2.5q1.578125 1.65625 1.578125 4.15625q0 2.109375 -1.03125 4.203125q-1.03125 2.078125 -2.875 3.5625q-1.984375 1.59375 -4.640625 2.5q-2.65625 0.890625 -6.265625 0.890625zm64.65625 -17.375l-25.484375 0l0 -3.4375l25.484375 0l0 3.4375zm0 9.015625l-25.484375 0l0 -3.4375l25.484375 0l0 3.4375z" fill-rule="nonzero"/><path fill="#000000" d="m1154.5298 271.92642l-3.21875 0q-3.25 0 -5.140625 -1.546875q-1.890625 -1.546875 -1.890625 -4.46875q0 -1.078125 0.21875 -2.125q0.234375 -1.03125 0.453125 -2.0q0.25 -1.078125 0.453125 -2.125q0.203125 -1.0625 0.203125 -2.171875q0 -2.4531097 -1.390625 -3.7812347q-1.375 -1.328125 -4.59375 -1.328125l-1.09375 0l0.71875 -3.1875l1.09375 0q3.59375 0 5.796875 -2.0q2.21875 -2.0 3.015625 -5.8125l0.640625 -3.0625q0.828125 -3.921875 3.546875 -6.078125q2.734375 -2.171875 6.9375 -2.171875l3.234375 0l-0.609375 2.828125l-2.453125 0q-3.0625 0 -4.640625 1.5q-1.578125 1.5 -2.15625 4.359375l-0.765625 3.546875q-0.703125 3.171875 -2.796875 5.125q-2.078125 1.9375 -5.1875 3.09375l-0.171875 0.515625q2.234375 1.0 3.46875 2.5625q1.25 1.5625 1.25 3.7343597q0 1.296875 -0.671875 4.046875q-0.671875 2.75 -0.671875 4.03125q0 1.859375 1.078125 2.78125q1.09375 0.921875 3.5 0.921875l2.4375 0l-0.59375 2.8125zm39.289062 -36.781235l-11.40625 0l-6.546875 28.35936l-4.296875 0l6.546875 -28.35936l-11.40625 0l0.8125 -3.625l27.125 0l-0.828125 3.625zm8.253906 37.218735l-4.546875 0q-1.9375 -3.140625 -3.1875 -6.796875q-1.25 -3.65625 -1.25 -7.625q0 -4.0781097 0.984375 -7.8749847q1.0 -3.796875 2.90625 -7.46875q1.828125 -3.484375 4.375 -6.59375q2.546875 -3.109375 5.625 -5.9375l4.84375 0l0 0.21875q-2.4375 1.8125 -5.09375 4.578125q-2.65625 2.765625 -4.78125 6.125q-2.171875 3.421875 -3.546875 7.53125q-1.359375 4.109375 -1.359375 8.67186q0 4.65625 1.359375 8.484375q1.359375 3.84375 3.671875 6.46875l0 0.21875zm31.480469 -24.093735q-1.984375 1.640625 -4.421875 2.453125q-2.4375 0.796875 -5.875 0.796875l-4.65625 0l-2.78125 11.98436l-4.296875 0l7.390625 -31.98436l8.421875 0q2.921875 0 4.828125 0.515625q1.921875 0.515625 3.140625 1.46875q1.28125 0.96875 1.9375 2.359375q0.671875 1.390625 0.671875 3.34375q0 2.625 -1.140625 4.984375q-1.140625 2.34375 -3.21875 4.078125zm-0.203125 -8.328125q0 -1.109375 -0.359375 -2.046875q-0.359375 -0.953125 -1.140625 -1.546875q-0.921875 -0.703125 -2.1875 -1.015625q-1.25 -0.3125 -3.265625 -0.3125l-3.984375 0l-3.015625 13.03125l3.8125 0q2.578125 0 4.28125 -0.46875q1.71875 -0.46875 2.96875 -1.5q1.453125 -1.234375 2.171875 -2.75q0.71875 -1.53125 0.71875 -3.390625z" fill-rule="nonzero"/><path fill="#000000" d="m1250.352 280.00455l-11.578125 0l0.484375 -2.078125l4.390625 0l3.34375 -14.484375l-4.4375 0l0.421875 -1.859375q2.46875 0 3.828125 -0.6875q1.375 -0.703125 1.84375 -2.28125l2.234375 0l-4.46875 19.3125l4.421875 0l-0.484375 2.078125z" fill-rule="nonzero"/><path fill="#000000" d="m1272.2158 244.48894q0 4.0625 -1.015625 7.9375q-1.0 3.8749847 -2.875 7.4062347q-1.859375 3.515625 -4.421875 6.65625q-2.5625 3.15625 -5.5625 5.875l-4.859375 0l0 -0.21875q2.46875 -1.84375 5.09375 -4.546875q2.640625 -2.703125 4.796875 -6.15625q2.4375 -3.953125 3.65625 -7.9218597q1.234375 -3.984375 1.234375 -8.28125q0 -4.578125 -1.34375 -8.421875q-1.34375 -3.859375 -3.6875 -6.53125l0 -0.21875l4.5625 0q1.90625 3.125 3.15625 6.765625q1.265625 3.640625 1.265625 7.65625zm47.01172 6.171875q-0.84375 3.578125 -2.140625 6.1093597q-1.28125 2.515625 -3.40625 4.265625q-1.96875 1.59375 -4.28125 2.375q-2.3125 0.765625 -5.421875 0.765625q-5.0625 0 -7.53125 -2.28125q-2.46875 -2.28125 -2.46875 -6.2968597q0 -1.359375 0.1875 -2.515625q0.1875 -1.15625 0.453125 -2.421875l4.4375 -19.140625l4.296875 0l-4.46875 19.34375q-0.265625 1.015625 -0.421875 2.28125q-0.15625 1.25 -0.15625 1.953125q0 2.7187347 1.609375 4.1406097q1.609375 1.421875 4.8125 1.421875q2.296875 0 4.03125 -0.703125q1.75 -0.703125 3.03125 -2.125q1.15625 -1.328125 1.859375 -2.9531097q0.703125 -1.625 1.21875 -3.90625l4.484375 -19.453125l4.296875 0l-4.421875 19.140625z" fill-rule="nonzero"/><path fill="#000000" d="m1179.854 287.9452l-11.40625 0l-6.546875 28.359375l-4.296875 0l6.546875 -28.359375l-11.40625 0l0.8125 -3.625l27.125 0l-0.828125 3.625zm8.253906 37.21875l-4.546875 0q-1.9375 -3.140625 -3.1875 -6.796875q-1.25 -3.65625 -1.25 -7.625q0 -4.078125 0.984375 -7.875q1.0 -3.796875 2.90625 -7.46875q1.828125 -3.484375 4.375 -6.59375q2.546875 -3.109375 5.625 -5.9375l4.84375 0l0 0.21875q-2.4375 1.8125 -5.09375 4.578125q-2.65625 2.765625 -4.78125 6.125q-2.171875 3.421875 -3.546875 7.53125q-1.359375 4.109375 -1.359375 8.671875q0 4.65625 1.359375 8.484375q1.359375 3.84375 3.671875 6.46875l0 0.21875zm31.480469 -24.09375q-1.984375 1.640625 -4.421875 2.453125q-2.4375 0.796875 -5.875 0.796875l-4.65625 0l-2.78125 11.984375l-4.296875 0l7.390625 -31.984375l8.421875 0q2.921875 0 4.828125 0.515625q1.921875 0.515625 3.140625 1.46875q1.28125 0.96875 1.9375 2.359375q0.671875 1.390625 0.671875 3.34375q0 2.625 -1.140625 4.984375q-1.140625 2.34375 -3.21875 4.078125zm-0.203125 -8.328125q0 -1.109375 -0.359375 -2.046875q-0.359375 -0.953125 -1.140625 -1.546875q-0.921875 -0.703125 -2.1875 -1.015625q-1.25 -0.3125 -3.265625 -0.3125l-3.984375 0l-3.015625 13.03125l3.8125 0q2.578125 0 4.28125 -0.46875q1.71875 -0.46875 2.96875 -1.5q1.453125 -1.234375 2.171875 -2.75q0.71875 -1.53125 0.71875 -3.390625z" fill-rule="nonzero"/><path fill="#000000" d="m1237.5278 332.80457l-14.453125 0l0.671875 -3.0q2.015625 -1.46875 3.421875 -2.5q1.421875 -1.046875 3.40625 -2.640625q3.5 -2.78125 4.9375 -4.6875q1.4375 -1.921875 1.4375 -3.71875q0 -1.40625 -1.0 -2.125q-0.984375 -0.71875 -2.546875 -0.71875q-1.28125 0 -2.921875 0.484375q-1.625 0.46875 -3.203125 1.375l-0.140625 0l0.5625 -2.90625q1.140625 -0.515625 2.890625 -0.921875q1.765625 -0.40625 3.390625 -0.40625q2.875 0 4.4375 1.25q1.5625 1.25 1.5625 3.390625q0 2.296875 -1.328125 4.359375q-1.3125 2.046875 -4.609375 4.796875q-1.953125 1.609375 -4.03125 3.140625q-2.0625 1.515625 -3.40625 2.484375l11.453125 0l-0.53125 2.34375z" fill-rule="nonzero"/><path fill="#000000" d="m1258.251 297.28894q0 4.0625 -1.015625 7.9375q-1.0 3.875 -2.875 7.40625q-1.859375 3.515625 -4.421875 6.65625q-2.5625 3.15625 -5.5625 5.875l-4.859375 0l0 -0.21875q2.46875 -1.84375 5.09375 -4.546875q2.640625 -2.703125 4.796875 -6.15625q2.4375 -3.953125 3.65625 -7.921875q1.234375 -3.984375 1.234375 -8.28125q0 -4.578125 -1.34375 -8.421875q-1.34375 -3.859375 -3.6875 -6.53125l0 -0.21875l4.5625 0q1.90625 3.125 3.15625 6.765625q1.265625 3.640625 1.265625 7.65625zm47.01172 6.171875q-0.84375 3.578125 -2.140625 6.109375q-1.28125 2.515625 -3.40625 4.265625q-1.96875 1.59375 -4.28125 2.375q-2.3125 0.765625 -5.421875 0.765625q-5.0625 0 -7.53125 -2.28125q-2.46875 -2.28125 -2.46875 -6.296875q0 -1.359375 0.1875 -2.515625q0.1875 -1.15625 0.453125 -2.421875l4.4375 -19.140625l4.296875 0l-4.46875 19.34375q-0.265625 1.015625 -0.421875 2.28125q-0.15625 1.25 -0.15625 1.953125q0 2.71875 1.609375 4.140625q1.609375 1.421875 4.8125 1.421875q2.296875 0 4.03125 -0.703125q1.75 -0.703125 3.03125 -2.125q1.15625 -1.328125 1.859375 -2.953125q0.703125 -1.625 1.21875 -3.90625l4.484375 -19.453125l4.296875 0l-4.421875 19.140625z" fill-rule="nonzero"/><path fill="#000000" d="m1240.3289 369.10455l-4.375 0l1.109375 -4.796875l4.390625 0l-1.125 4.796875zm-11.984375 0l-4.375 0l1.109375 -4.796875l4.390625 0l-1.125 4.796875zm-11.984375 0l-4.390625 0l1.125 -4.796875l4.375 0l-1.109375 4.796875z" fill-rule="nonzero"/><path fill="#000000" d="m1162.2256 393.54517l-11.40625 0l-6.546875 28.359375l-4.296875 0l6.546875 -28.359375l-11.40625 0l0.8125 -3.625l27.125 0l-0.828125 3.625zm8.253906 37.21875l-4.546875 0q-1.9375 -3.140625 -3.1875 -6.796875q-1.25 -3.65625 -1.25 -7.625q0 -4.078125 0.984375 -7.875q1.0 -3.796875 2.90625 -7.46875q1.828125 -3.484375 4.375 -6.59375q2.546875 -3.109375 5.625 -5.9375l4.84375 0l0 0.21875q-2.4375 1.8125 -5.09375 4.578125q-2.65625 2.765625 -4.78125 6.125q-2.171875 3.421875 -3.546875 7.53125q-1.359375 4.109375 -1.359375 8.671875q0 4.65625 1.359375 8.484375q1.359375 3.84375 3.671875 6.46875l0 0.21875zm31.480469 -24.09375q-1.984375 1.640625 -4.421875 2.453125q-2.4375 0.796875 -5.875 0.796875l-4.65625 0l-2.78125 11.984375l-4.296875 0l7.390625 -31.984375l8.421875 0q2.921875 0 4.828125 0.515625q1.921875 0.515625 3.140625 1.46875q1.28125 0.96875 1.9375 2.359375q0.671875 1.390625 0.671875 3.34375q0 2.625 -1.140625 4.984375q-1.140625 2.34375 -3.21875 4.078125zm-0.203125 -8.328125q0 -1.109375 -0.359375 -2.046875q-0.359375 -0.953125 -1.140625 -1.546875q-0.921875 -0.703125 -2.1875 -1.015625q-1.25 -0.3125 -3.265625 -0.3125l-3.984375 0l-3.015625 13.03125l3.8125 0q2.578125 0 4.28125 -0.46875q1.71875 -0.46875 2.96875 -1.5q1.453125 -1.234375 2.171875 -2.75q0.71875 -1.53125 0.71875 -3.390625z" fill-rule="nonzero"/><path fill="#000000" d="m1222.2588 438.40454l-3.375 0l-5.828125 -19.078125l-4.40625 19.078125l-2.6875 0l4.921875 -21.328125l4.28125 0l5.3125 17.421875l4.03125 -17.421875l2.671875 0l-4.921875 21.328125zm15.782593 -8.03125l-8.9375 0l0.609375 -2.59375l8.9375 0l-0.609375 2.59375zm15.974121 8.03125l-11.578125 0l0.484375 -2.078125l4.390625 0l3.34375 -14.484375l-4.4375 0l0.421875 -1.859375q2.46875 0 3.828125 -0.6875q1.375 -0.703125 1.84375 -2.28125l2.234375 0l-4.46875 19.3125l4.421875 0l-0.484375 2.078125z" fill-rule="nonzero"/><path fill="#000000" d="m1275.8794 402.88892q0 4.0625 -1.015625 7.9375q-1.0 3.875 -2.875 7.40625q-1.859375 3.515625 -4.421875 6.65625q-2.5625 3.15625 -5.5625 5.875l-4.859375 0l0 -0.21875q2.46875 -1.84375 5.09375 -4.546875q2.640625 -2.703125 4.796875 -6.15625q2.4375 -3.953125 3.65625 -7.921875q1.234375 -3.984375 1.234375 -8.28125q0 -4.578125 -1.34375 -8.421875q-1.34375 -3.859375 -3.6875 -6.53125l0 -0.21875l4.5625 0q1.90625 3.125 3.15625 6.765625q1.265625 3.640625 1.265625 7.65625zm47.01172 6.171875q-0.84375 3.578125 -2.140625 6.109375q-1.28125 2.515625 -3.40625 4.265625q-1.96875 1.59375 -4.28125 2.375q-2.3125 0.765625 -5.421875 0.765625q-5.0625 0 -7.53125 -2.28125q-2.46875 -2.28125 -2.46875 -6.296875q0 -1.359375 0.1875 -2.515625q0.1875 -1.15625 0.453125 -2.421875l4.4375 -19.140625l4.296875 0l-4.46875 19.34375q-0.265625 1.015625 -0.421875 2.28125q-0.15625 1.25 -0.15625 1.953125q0 2.71875 1.609375 4.140625q1.609375 1.421875 4.8125 1.421875q2.296875 0 4.03125 -0.703125q1.75 -0.703125 3.03125 -2.125q1.15625 -1.328125 1.859375 -2.953125q0.703125 -1.625 1.21875 -3.90625l4.484375 -19.453125l4.296875 0l-4.421875 19.140625z" fill-rule="nonzero"/><path fill="#000000" d="m1188.0792 446.34515l-11.40625 0l-6.546875 28.359375l-4.296875 0l6.546875 -28.359375l-11.40625 0l0.8125 -3.625l27.125 0l-0.828125 3.625zm8.253906 37.21875l-4.546875 0q-1.9375 -3.140625 -3.1875 -6.796875q-1.25 -3.65625 -1.25 -7.625q0 -4.078125 0.984375 -7.875q1.0 -3.796875 2.90625 -7.46875q1.828125 -3.484375 4.375 -6.59375q2.546875 -3.109375 5.625 -5.9375l4.84375 0l0 0.21875q-2.4375 1.8125 -5.09375 4.578125q-2.65625 2.765625 -4.78125 6.125q-2.171875 3.421875 -3.546875 7.53125q-1.359375 4.109375 -1.359375 8.671875q0 4.65625 1.359375 8.484375q1.359375 3.84375 3.671875 6.46875l0 0.21875zm31.480469 -24.09375q-1.984375 1.640625 -4.421875 2.453125q-2.4375 0.796875 -5.875 0.796875l-4.65625 0l-2.78125 11.984375l-4.296875 0l7.390625 -31.984375l8.421875 0q2.921875 0 4.828125 0.515625q1.921875 0.515625 3.140625 1.46875q1.28125 0.96875 1.9375 2.359375q0.671875 1.390625 0.671875 3.34375q0 2.625 -1.140625 4.984375q-1.140625 2.34375 -3.21875 4.078125zm-0.203125 -8.328125q0 -1.109375 -0.359375 -2.046875q-0.359375 -0.953125 -1.140625 -1.546875q-0.921875 -0.703125 -2.1875 -1.015625q-1.25 -0.3125 -3.265625 -0.3125l-3.984375 0l-3.015625 13.03125l3.8125 0q2.578125 0 4.28125 -0.46875q1.71875 -0.46875 2.96875 -1.5q1.453125 -1.234375 2.171875 -2.75q0.71875 -1.53125 0.71875 -3.390625z" fill-rule="nonzero"/><path fill="#000000" d="m1248.1124 491.20453l-3.375 0l-5.828125 -19.078125l-4.40625 19.078125l-2.6875 0l4.921875 -21.328125l4.28125 0l5.3125 17.421875l4.03125 -17.421875l2.671875 0l-4.921875 21.328125z" fill-rule="nonzero"/><path fill="#000000" d="m1269.7699 455.6889q0 4.0625 -1.015625 7.9375q-1.0 3.875 -2.875 7.40625q-1.859375 3.515625 -4.421875 6.65625q-2.5625 3.15625 -5.5625 5.875l-4.859375 0l0 -0.21875q2.46875 -1.84375 5.09375 -4.546875q2.640625 -2.703125 4.796875 -6.15625q2.4375 -3.953125 3.65625 -7.921875q1.234375 -3.984375 1.234375 -8.28125q0 -4.578125 -1.34375 -8.421875q-1.34375 -3.859375 -3.6875 -6.53125l0 -0.21875l4.5625 0q1.90625 3.125 3.15625 6.765625q1.265625 3.640625 1.265625 7.65625zm27.636719 5.140625l-0.734375 3.171875l-1.09375 0q-3.671875 0 -5.84375 2.03125q-2.171875 2.015625 -2.96875 5.796875l-0.640625 3.046875q-0.890625 4.0 -3.5625 6.125q-2.65625 2.125 -6.921875 2.125l-3.234375 0l0.609375 -2.8125l2.453125 0q2.921875 0 4.53125 -1.375q1.609375 -1.375 2.28125 -4.5l0.75 -3.53125q0.34375 -1.65625 1.09375 -2.9375q0.765625 -1.28125 1.84375 -2.3125q1.046875 -1.015625 2.375 -1.734375q1.328125 -0.71875 2.671875 -1.25l0.171875 -0.515625q-2.296875 -1.03125 -3.515625 -2.609375q-1.203125 -1.578125 -1.203125 -3.6875q0 -1.25 0.671875 -3.984375q0.671875 -2.734375 0.671875 -4.09375q0 -1.9375 -1.171875 -2.8125q-1.171875 -0.875 -3.40625 -0.875l-2.4375 0l0.59375 -2.828125l3.21875 0q3.25 0 5.140625 1.546875q1.890625 1.546875 1.890625 4.46875q0 1.03125 -0.21875 2.125q-0.203125 1.078125 -0.453125 2.0q-0.203125 0.859375 -0.4375 2.0625q-0.21875 1.203125 -0.21875 2.234375q0 2.453125 1.375 3.796875q1.390625 1.328125 4.609375 1.328125l1.109375 0z" fill-rule="nonzero"/><path fill="#000000" fill-opacity="0.0" d="m379.80054 347.03937l33.480316 -0.3779602" fill-rule="evenodd"/><path stroke="#000000" stroke-width="2.0" stroke-linejoin="round" stroke-linecap="butt" d="m379.80054 347.03937l21.48108 -0.24249268" fill-rule="evenodd"/><path fill="#000000" stroke="#000000" stroke-width="2.0" stroke-linecap="butt" d="m401.3189 350.10013l9.0383 -3.4057007l-9.1128845 -3.2008057z" fill-rule="evenodd"/><path fill="#000000" fill-opacity="0.0" d="m630.98553 343.7953l39.496094 0" fill-rule="evenodd"/><path stroke="#000000" stroke-width="2.0" stroke-linejoin="round" stroke-linecap="butt" d="m630.98553 343.7953l27.496094 0" fill-rule="evenodd"/><path fill="#000000" stroke="#000000" stroke-width="2.0" stroke-linecap="butt" d="m658.4816 347.09875l9.076172 -3.3034668l-9.076172 -3.3034668z" fill-rule="evenodd"/><path fill="#000000" fill-opacity="0.0" d="m828.78345 337.04987l46.64569 0.56692505" fill-rule="evenodd"/><path stroke="#000000" stroke-width="2.0" stroke-linejoin="round" stroke-linecap="butt" d="m828.78345 337.04987l34.646606 0.42111206" fill-rule="evenodd"/><path fill="#000000" stroke="#000000" stroke-width="2.0" stroke-linecap="butt" d="m863.3899 340.77417l9.115662 -3.1929016l-9.0354 -3.4135132z" fill-rule="evenodd"/><path fill="#000000" fill-opacity="0.0" d="m1056.2454 337.04987l46.645752 0.56692505" fill-rule="evenodd"/><path stroke="#000000" stroke-width="2.0" stroke-linejoin="round" stroke-linecap="butt" d="m1056.2454 337.04987l34.646606 0.42111206" fill-rule="evenodd"/><path fill="#000000" stroke="#000000" stroke-width="2.0" stroke-linecap="butt" d="m1090.8518 340.77417l9.115723 -3.1929016l-9.0354 -3.4135132z" fill-rule="evenodd"/></g></svg>