<svg version="1.1" viewBox="0.0 0.0 470.87926509186354 427.8031496062992" fill="none" stroke="none" stroke-linecap="square" stroke-miterlimit="10" xmlns:xlink="http://www.w3.org/1999/xlink" xmlns="http://www.w3.org/2000/svg"><clipPath id="p.0"><path d="m0 0l470.87927 0l0 427.80316l-470.87927 0l0 -427.80316z" clip-rule="nonzero"/></clipPath><g clip-path="url(#p.0)"><path fill="#000000" fill-opacity="0.0" d="m0 0l470.87927 0l0 427.80316l-470.87927 0z" fill-rule="evenodd"/><path fill="#b6d7a8" d="m164.0853 342.1706l0 0c0 -10.602112 8.594727 -19.196838 19.196854 -19.196838l0 0c5.091324 0 9.974121 2.022522 13.574219 5.6226196c3.600113 3.6001282 5.622635 8.48291 5.622635 13.574219l0 0c0 10.602142 -8.594727 19.196869 -19.196854 19.196869l0 0c-10.602127 0 -19.196854 -8.594727 -19.196854 -19.196869z" fill-rule="evenodd"/><path stroke="#38761d" stroke-width="1.0" stroke-linejoin="round" stroke-linecap="butt" d="m164.0853 342.1706l0 0c0 -10.602112 8.594727 -19.196838 19.196854 -19.196838l0 0c5.091324 0 9.974121 2.022522 13.574219 5.6226196c3.600113 3.6001282 5.622635 8.48291 5.622635 13.574219l0 0c0 10.602142 -8.594727 19.196869 -19.196854 19.196869l0 0c-10.602127 0 -19.196854 -8.594727 -19.196854 -19.196869z" fill-rule="evenodd"/><path fill="#000000" d="m185.66106 349.0906l-1.640625 0l0 -10.453125q-0.59375 0.5625 -1.5625 1.140625q-0.953125 0.5625 -1.71875 0.84375l0 -1.59375q1.375 -0.640625 2.40625 -1.5625q1.03125 -0.921875 1.453125 -1.78125l1.0625 0l0 13.40625z" fill-rule="nonzero"/><path fill="#e69138" d="m164.0853 407.5013l0 0c0 -10.602142 8.594727 -19.196838 19.196854 -19.196838l0 0c5.091324 0 9.974121 2.022522 13.574219 5.6226196c3.600113 3.6000977 5.622635 8.48291 5.622635 13.574219l0 0c0 10.602142 -8.594727 19.196838 -19.196854 19.196838l0 0c-10.602127 0 -19.196854 -8.594696 -19.196854 -19.196838z" fill-rule="evenodd"/><path stroke="#b45f06" stroke-width="1.0" stroke-linejoin="round" stroke-linecap="butt" d="m164.0853 407.5013l0 0c0 -10.602142 8.594727 -19.196838 19.196854 -19.196838l0 0c5.091324 0 9.974121 2.022522 13.574219 5.6226196c3.600113 3.6000977 5.622635 8.48291 5.622635 13.574219l0 0c0 10.602142 -8.594727 19.196838 -19.196854 19.196838l0 0c-10.602127 0 -19.196854 -8.594696 -19.196854 -19.196838z" fill-rule="evenodd"/><path fill="#000000" d="m179.48918 410.89005l1.640625 -0.21875q0.28125 1.40625 0.953125 2.015625q0.6875 0.609375 1.65625 0.609375q1.15625 0 1.953125 -0.796875q0.796875 -0.796875 0.796875 -1.984375q0 -1.125 -0.734375 -1.859375q-0.734375 -0.734375 -1.875 -0.734375q-0.46875 0 -1.15625 0.171875l0.1875 -1.4375q0.15625 0.015625 0.265625 0.015625q1.046875 0 1.875 -0.546875q0.84375 -0.546875 0.84375 -1.671875q0 -0.90625 -0.609375 -1.5q-0.609375 -0.59375 -1.578125 -0.59375q-0.953125 0 -1.59375 0.609375q-0.640625 0.59375 -0.8125 1.796875l-1.640625 -0.296875q0.296875 -1.640625 1.359375 -2.546875q1.0625 -0.90625 2.65625 -0.90625q1.09375 0 2.0 0.46875q0.921875 0.46875 1.40625 1.28125q0.5 0.8125 0.5 1.71875q0 0.859375 -0.46875 1.578125q-0.46875 0.703125 -1.375 1.125q1.1875 0.28125 1.84375 1.140625q0.65625 0.859375 0.65625 2.15625q0 1.734375 -1.28125 2.953125q-1.265625 1.21875 -3.21875 1.21875q-1.765625 0 -2.921875 -1.046875q-1.15625 -1.046875 -1.328125 -2.71875z" fill-rule="nonzero"/><path fill="#6d9eeb" d="m114.72835 380.5643l0 0c0 -10.602112 8.594719 -19.196838 19.196854 -19.196838l0 0c5.091324 0 9.974106 2.022522 13.574219 5.6226196c3.600113 3.6000977 5.6226196 8.48291 5.6226196 13.574219l0 0c0 10.602142 -8.594711 19.196869 -19.196838 19.196869l0 0c-10.602135 0 -19.196854 -8.594727 -19.196854 -19.196869z" fill-rule="evenodd"/><path stroke="#0000ff" stroke-width="1.0" stroke-linejoin="round" stroke-linecap="butt" d="m114.72835 380.5643l0 0c0 -10.602112 8.594719 -19.196838 19.196854 -19.196838l0 0c5.091324 0 9.974106 2.022522 13.574219 5.6226196c3.600113 3.6000977 5.6226196 8.48291 5.6226196 13.574219l0 0c0 10.602142 -8.594711 19.196869 -19.196838 19.196869l0 0c-10.602135 0 -19.196854 -8.594727 -19.196854 -19.196869z" fill-rule="evenodd"/><path fill="#000000" d="m138.7416 385.9062l0 1.578125l-8.828125 0q-0.015625 -0.59375 0.1875 -1.140625q0.34375 -0.90625 1.078125 -1.78125q0.75 -0.875 2.15625 -2.015625q2.171875 -1.78125 2.9375 -2.828125q0.765625 -1.046875 0.765625 -1.96875q0 -0.984375 -0.703125 -1.640625q-0.6875 -0.671875 -1.8125 -0.671875q-1.1875 0 -1.90625 0.71875q-0.703125 0.703125 -0.703125 1.953125l-1.6875 -0.171875q0.171875 -1.890625 1.296875 -2.875q1.140625 -0.984375 3.03125 -0.984375q1.921875 0 3.046875 1.0625q1.125 1.0625 1.125 2.640625q0 0.796875 -0.328125 1.578125q-0.328125 0.78125 -1.09375 1.640625q-0.75 0.84375 -2.53125 2.34375q-1.46875 1.234375 -1.890625 1.6875q-0.421875 0.4375 -0.6875 0.875l6.546875 0z" fill-rule="nonzero"/><path fill="#ea9999" d="m114.35958 312.4987l0 0c0 -10.602142 8.594719 -19.196838 19.196846 -19.196838l0 0c5.091324 0 9.974121 2.022522 13.574234 5.6226196c3.6000977 3.6000977 5.6226196 8.48291 5.6226196 13.574219l0 0c0 10.602142 -8.594727 19.196838 -19.196854 19.196838l0 0c-10.602127 0 -19.196846 -8.594696 -19.196846 -19.196838z" fill-rule="evenodd"/><path stroke="#ff0000" stroke-width="1.0" stroke-linejoin="round" stroke-linecap="butt" d="m114.35958 312.4987l0 0c0 -10.602142 8.594719 -19.196838 19.196846 -19.196838l0 0c5.091324 0 9.974121 2.022522 13.574234 5.6226196c3.6000977 3.6000977 5.6226196 8.48291 5.6226196 13.574219l0 0c0 10.602142 -8.594727 19.196838 -19.196854 19.196838l0 0c-10.602127 0 -19.196846 -8.594696 -19.196846 -19.196838z" fill-rule="evenodd"/><path fill="#000000" d="m135.01346 319.41867l0 -3.203125l-5.796875 0l0 -1.5l6.09375 -8.65625l1.34375 0l0 8.65625l1.796875 0l0 1.5l-1.796875 0l0 3.203125l-1.640625 0zm0 -4.703125l0 -6.015625l-4.1875 6.015625l4.1875 0z" fill-rule="nonzero"/><path fill="#e69138" d="m64.543304 279.15485l0 0c0 -10.602112 8.594727 -19.196838 19.196854 -19.196838l0 0c5.091324 0 9.974113 2.022522 13.574219 5.6226196c3.600113 3.6000977 5.6226273 8.48291 5.6226273 13.574219l0 0c0 10.602142 -8.594719 19.196869 -19.196846 19.196869l0 0c-10.602127 0 -19.196854 -8.594727 -19.196854 -19.196869z" fill-rule="evenodd"/><path stroke="#b45f06" stroke-width="1.0" stroke-linejoin="round" stroke-linecap="butt" d="m64.543304 279.15485l0 0c0 -10.602112 8.594727 -19.196838 19.196854 -19.196838l0 0c5.091324 0 9.974113 2.022522 13.574219 5.6226196c3.600113 3.6000977 5.6226273 8.48291 5.6226273 13.574219l0 0c0 10.602142 -8.594719 19.196869 -19.196846 19.196869l0 0c-10.602127 0 -19.196854 -8.594727 -19.196854 -19.196869z" fill-rule="evenodd"/><path fill="#000000" d="m85.19718 286.07486l0 -3.203125l-5.796875 0l0 -1.5l6.09375 -8.65625l1.34375 0l0 8.65625l1.796875 0l0 1.5l-1.796875 0l0 3.203125l-1.640625 0zm0 -4.703125l0 -6.015625l-4.1875 6.015625l4.1875 0z" fill-rule="nonzero"/><path fill="#b6d7a8" d="m64.543304 213.82414l0 0c0 -10.602127 8.594727 -19.196838 19.196854 -19.196838l0 0c5.091324 0 9.974113 2.0225067 13.574219 5.6226196c3.600113 3.600113 5.6226273 8.482895 5.6226273 13.574219l0 0c0 10.602127 -8.594719 19.196854 -19.196846 19.196854l0 0c-10.602127 0 -19.196854 -8.594727 -19.196854 -19.196854z" fill-rule="evenodd"/><path stroke="#38761d" stroke-width="1.0" stroke-linejoin="round" stroke-linecap="butt" d="m64.543304 213.82414l0 0c0 -10.602127 8.594727 -19.196838 19.196854 -19.196838l0 0c5.091324 0 9.974113 2.0225067 13.574219 5.6226196c3.600113 3.600113 5.6226273 8.482895 5.6226273 13.574219l0 0c0 10.602127 -8.594719 19.196854 -19.196846 19.196854l0 0c-10.602127 0 -19.196854 -8.594727 -19.196854 -19.196854z" fill-rule="evenodd"/><path fill="#000000" d="m79.94718 217.21289l1.640625 -0.21875q0.28125 1.40625 0.953125 2.015625q0.6875 0.609375 1.65625 0.609375q1.15625 0 1.953125 -0.796875q0.796875 -0.796875 0.796875 -1.984375q0 -1.125 -0.734375 -1.859375q-0.734375 -0.734375 -1.875 -0.734375q-0.46875 0 -1.15625 0.171875l0.1875 -1.4375q0.15625 0.015625 0.265625 0.015625q1.046875 0 1.875 -0.546875q0.84375 -0.546875 0.84375 -1.671875q0 -0.90625 -0.609375 -1.5q-0.609375 -0.59375 -1.578125 -0.59375q-0.953125 0 -1.59375 0.609375q-0.640625 0.59375 -0.8125 1.796875l-1.640625 -0.296875q0.296875 -1.640625 1.359375 -2.546875q1.0625 -0.90625 2.65625 -0.90625q1.09375 0 2.0 0.46875q0.921875 0.46875 1.40625 1.28125q0.5 0.8125 0.5 1.71875q0 0.859375 -0.46875 1.578125q-0.46875 0.703125 -1.375 1.125q1.1875 0.28125 1.84375 1.140625q0.65625 0.859375 0.65625 2.15625q0 1.734375 -1.28125 2.953125q-1.265625 1.21875 -3.21875 1.21875q-1.765625 0 -2.921875 -1.046875q-1.15625 -1.046875 -1.328125 -2.71875z" fill-rule="nonzero"/><path fill="#6d9eeb" d="m15.729659 252.21785l0 0c0 -10.602127 8.594722 -19.196854 19.19685 -19.196854l0 0c5.09132 0 9.974113 2.022522 13.574223 5.622635c3.600109 3.6000977 5.6226273 8.482895 5.6226273 13.574219l0 0c0 10.602127 -8.594723 19.196854 -19.19685 19.196854l0 0c-10.602129 0 -19.19685 -8.594727 -19.19685 -19.196854z" fill-rule="evenodd"/><path stroke="#0000ff" stroke-width="1.0" stroke-linejoin="round" stroke-linecap="butt" d="m15.729659 252.21785l0 0c0 -10.602127 8.594722 -19.196854 19.19685 -19.196854l0 0c5.09132 0 9.974113 2.022522 13.574223 5.622635c3.600109 3.6000977 5.6226273 8.482895 5.6226273 13.574219l0 0c0 10.602127 -8.594723 19.196854 -19.19685 19.196854l0 0c-10.602129 0 -19.19685 -8.594727 -19.19685 -19.196854z" fill-rule="evenodd"/><path fill="#000000" d="m39.742912 257.55972l0 1.578125l-8.828127 0q-0.015625 -0.59375 0.1875 -1.140625q0.34375 -0.90625 1.0781269 -1.78125q0.75 -0.875 2.15625 -2.015625q2.171875 -1.78125 2.9375 -2.828125q0.765625 -1.046875 0.765625 -1.96875q0 -0.984375 -0.703125 -1.640625q-0.6875 -0.671875 -1.8125 -0.671875q-1.1875 0 -1.90625 0.71875q-0.703125 0.703125 -0.703125 1.953125l-1.6875019 -0.171875q0.171875 -1.890625 1.2968769 -2.875q1.140625 -0.984375 3.03125 -0.984375q1.921875 0 3.046875 1.0625q1.125 1.0625 1.125 2.640625q0 0.796875 -0.328125 1.578125q-0.328125 0.78125 -1.09375 1.640625q-0.75 0.84375 -2.53125 2.34375q-1.46875 1.234375 -1.890625 1.6875q-0.421875 0.4375 -0.6875 0.875l6.546875 0z" fill-rule="nonzero"/><path fill="#ea9999" d="m14.817585 184.21785l0 0c0 -10.602127 8.594723 -19.196854 19.19685 -19.196854l0 0c5.091324 0 9.974117 2.022522 13.574223 5.622635c3.600109 3.6000977 5.6226273 8.482895 5.6226273 13.574219l0 0c0 10.602127 -8.594723 19.196854 -19.19685 19.196854l0 0c-10.602127 0 -19.19685 -8.594727 -19.19685 -19.196854z" fill-rule="evenodd"/><path stroke="#ff0000" stroke-width="1.0" stroke-linejoin="round" stroke-linecap="butt" d="m14.817585 184.21785l0 0c0 -10.602127 8.594723 -19.196854 19.19685 -19.196854l0 0c5.091324 0 9.974117 2.022522 13.574223 5.622635c3.600109 3.6000977 5.6226273 8.482895 5.6226273 13.574219l0 0c0 10.602127 -8.594723 19.196854 -19.19685 19.196854l0 0c-10.602127 0 -19.19685 -8.594727 -19.19685 -19.196854z" fill-rule="evenodd"/><path fill="#000000" d="m36.393337 191.13785l-1.640625 0l0 -10.453125q-0.59375 0.5625 -1.5625 1.140625q-0.953125 0.5625 -1.71875 0.84375l0 -1.59375q1.375 -0.640625 2.40625 -1.5625q1.03125 -0.921875 1.453125 -1.78125l1.0625 0l0 13.40625z" fill-rule="nonzero"/><path fill="#ea9999" d="m107.367455 28.38845l0 0c0 -10.602127 8.594719 -19.19685 19.196854 -19.19685l0 0c5.091316 0 9.974113 2.02252 13.574226 5.6226273c3.6000977 3.6001072 5.6226196 8.482903 5.6226196 13.574223l0 0c0 10.602127 -8.594727 19.19685 -19.196846 19.19685l0 0c-10.602135 0 -19.196854 -8.594723 -19.196854 -19.19685z" fill-rule="evenodd"/><path stroke="#ff0000" stroke-width="1.0" stroke-linejoin="round" stroke-linecap="butt" d="m107.367455 28.38845l0 0c0 -10.602127 8.594719 -19.19685 19.196854 -19.19685l0 0c5.091316 0 9.974113 2.02252 13.574226 5.6226273c3.6000977 3.6001072 5.6226196 8.482903 5.6226196 13.574223l0 0c0 10.602127 -8.594727 19.19685 -19.196846 19.19685l0 0c-10.602135 0 -19.196854 -8.594723 -19.196854 -19.19685z" fill-rule="evenodd"/><path fill="#000000" d="m128.9432 35.30845l-1.640625 0l0 -10.453125q-0.59375 0.5625 -1.5625 1.140625q-0.953125 0.5625 -1.71875 0.84375l0 -1.59375q1.375 -0.640625 2.40625 -1.5625q1.03125 -0.921875 1.453125 -1.78125l1.0625 0l0 13.40625z" fill-rule="nonzero"/><path fill="#b6d7a8" d="m157.09186 58.060368l0 0c0 -10.602127 8.594727 -19.19685 19.196854 -19.19685l0 0c5.091324 0 9.974121 2.0225182 13.574219 5.6226273c3.600113 3.6001053 5.622635 8.482903 5.622635 13.574223l0 0c0 10.602131 -8.594727 19.19685 -19.196854 19.19685l0 0c-10.602127 0 -19.196854 -8.594719 -19.196854 -19.19685z" fill-rule="evenodd"/><path stroke="#38761d" stroke-width="1.0" stroke-linejoin="round" stroke-linecap="butt" d="m157.09186 58.060368l0 0c0 -10.602127 8.594727 -19.19685 19.196854 -19.19685l0 0c5.091324 0 9.974121 2.0225182 13.574219 5.6226273c3.600113 3.6001053 5.622635 8.482903 5.622635 13.574223l0 0c0 10.602131 -8.594727 19.19685 -19.196854 19.19685l0 0c-10.602127 0 -19.196854 -8.594719 -19.196854 -19.19685z" fill-rule="evenodd"/><path fill="#000000" d="m181.10512 63.40224l0 1.5781212l-8.828125 0q-0.015625 -0.59375 0.1875 -1.1406212q0.34375 -0.90625 1.078125 -1.78125q0.75 -0.875 2.15625 -2.015625q2.171875 -1.78125 2.9375 -2.828125q0.765625 -1.046875 0.765625 -1.96875q0 -0.984375 -0.703125 -1.640625q-0.6875 -0.671875 -1.8125 -0.671875q-1.1875 0 -1.90625 0.71875q-0.703125 0.703125 -0.703125 1.953125l-1.6875 -0.171875q0.171875 -1.890625 1.296875 -2.875q1.140625 -0.984375 3.03125 -0.984375q1.921875 0 3.046875 1.0625q1.125 1.0625 1.125 2.640625q0 0.796875 -0.328125 1.578125q-0.328125 0.78125 -1.09375 1.640625q-0.75 0.84375 -2.53125 2.34375q-1.46875 1.234375 -1.890625 1.6875q-0.421875 0.4375 -0.6875 0.875l6.546875 0z" fill-rule="nonzero"/><path fill="#6d9eeb" d="m107.367455 96.45407l0 0c0 -10.602127 8.594719 -19.196854 19.196854 -19.196854l0 0c5.091316 0 9.974113 2.022522 13.574226 5.6226273c3.6000977 3.6001053 5.6226196 8.482903 5.6226196 13.574226l0 0c0 10.602127 -8.594727 19.196846 -19.196846 19.196846l0 0c-10.602135 0 -19.196854 -8.594719 -19.196854 -19.196846z" fill-rule="evenodd"/><path stroke="#0000ff" stroke-width="1.0" stroke-linejoin="round" stroke-linecap="butt" d="m107.367455 96.45407l0 0c0 -10.602127 8.594719 -19.196854 19.196854 -19.196854l0 0c5.091316 0 9.974113 2.022522 13.574226 5.6226273c3.6000977 3.6001053 5.6226196 8.482903 5.6226196 13.574226l0 0c0 10.602127 -8.594727 19.196846 -19.196846 19.196846l0 0c-10.602135 0 -19.196854 -8.594719 -19.196854 -19.196846z" fill-rule="evenodd"/><path fill="#000000" d="m122.77133 99.84282l1.640625 -0.21875q0.28125 1.40625 0.953125 2.015625q0.6875 0.609375 1.65625 0.609375q1.15625 0 1.953125 -0.796875q0.796875 -0.796875 0.796875 -1.984375q0 -1.125 -0.734375 -1.859375q-0.734375 -0.734375 -1.875 -0.734375q-0.46875 0 -1.15625 0.171875l0.1875 -1.4375q0.15625 0.015625 0.265625 0.015625q1.046875 0 1.875 -0.546875q0.84375 -0.546875 0.84375 -1.671875q0 -0.90625 -0.609375 -1.5q-0.609375 -0.59375 -1.578125 -0.59375q-0.953125 0 -1.59375 0.609375q-0.640625 0.59375 -0.8125 1.796875l-1.640625 -0.296875q0.296875 -1.640625 1.359375 -2.546875q1.0625 -0.90625 2.65625 -0.90625q1.09375 0 2.0 0.46875q0.921875 0.46875 1.40625 1.28125q0.5 0.8125 0.5 1.71875q0 0.859375 -0.46875 1.578125q-0.46875 0.703125 -1.375 1.125q1.1875 0.28125 1.84375 1.140625q0.65625 0.859375 0.65625 2.15625q0 1.734375 -1.28125 2.953125q-1.265625 1.21875 -3.21875 1.21875q-1.765625 0 -2.921875 -1.046875q-1.15625 -1.046875 -1.328125 -2.71875z" fill-rule="nonzero"/><path fill="#e69138" d="m157.09186 123.391075l0 0c0 -10.602127 8.594727 -19.196846 19.196854 -19.196846l0 0c5.091324 0 9.974121 2.0225143 13.574219 5.6226273c3.600113 3.6001053 5.622635 8.482895 5.622635 13.574219l0 0c0 10.602135 -8.594727 19.196846 -19.196854 19.196846l0 0c-10.602127 0 -19.196854 -8.594711 -19.196854 -19.196846z" fill-rule="evenodd"/><path stroke="#b45f06" stroke-width="1.0" stroke-linejoin="round" stroke-linecap="butt" d="m157.09186 123.391075l0 0c0 -10.602127 8.594727 -19.196846 19.196854 -19.196846l0 0c5.091324 0 9.974121 2.0225143 13.574219 5.6226273c3.600113 3.6001053 5.622635 8.482895 5.622635 13.574219l0 0c0 10.602135 -8.594727 19.196846 -19.196854 19.196846l0 0c-10.602127 0 -19.196854 -8.594711 -19.196854 -19.196846z" fill-rule="evenodd"/><path fill="#000000" d="m177.74574 130.31108l0 -3.2031326l-5.796875 0l0 -1.5l6.09375 -8.65625l1.34375 0l0 8.65625l1.796875 0l0 1.5l-1.796875 0l0 3.2031326l-1.640625 0zm0 -4.7031326l0 -6.015625l-4.1875 6.015625l4.1875 0z" fill-rule="nonzero"/><path fill="#fff2cc" d="m230.2231 182.64503l0 0c0 -7.2689667 5.8926544 -13.161621 13.161621 -13.161621l122.968094 0c3.4906616 0 6.838379 1.3866577 9.306671 3.85495c2.4682922 2.468277 3.85495 5.8159943 3.85495 9.306671l0 106.99959c0 7.2689514 -5.8926697 13.161621 -13.161621 13.161621l-122.968094 0c-7.2689667 0 -13.161621 -5.8926697 -13.161621 -13.161621z" fill-rule="evenodd"/><path stroke="#f1c232" stroke-width="1.0" stroke-linejoin="round" stroke-linecap="butt" d="m230.2231 182.64503l0 0c0 -7.2689667 5.8926544 -13.161621 13.161621 -13.161621l122.968094 0c3.4906616 0 6.838379 1.3866577 9.306671 3.85495c2.4682922 2.468277 3.85495 5.8159943 3.85495 9.306671l0 106.99959c0 7.2689514 -5.8926697 13.161621 -13.161621 13.161621l-122.968094 0c-7.2689667 0 -13.161621 -5.8926697 -13.161621 -13.161621z" fill-rule="evenodd"/><path fill="#000000" d="m248.77916 243.06482l0 -13.359375l5.921875 0q1.7812653 0 2.7031403 0.359375q0.9375 0.359375 1.484375 1.28125q0.5625 0.90625 0.5625 2.015625q0 1.40625 -0.921875 2.390625q-0.921875 0.96875 -2.8437653 1.234375q0.70314026 0.34375 1.0781403 0.671875q0.765625 0.703125 1.453125 1.765625l2.328125 3.640625l-2.21875 0l-1.765625 -2.78125q-0.78126526 -1.203125 -1.2812653 -1.828125q-0.5 -0.640625 -0.90625 -0.890625q-0.390625 -0.265625 -0.796875 -0.359375q-0.296875 -0.078125 -0.984375 -0.078125l-2.046875 0l0 5.9375l-1.765625 0zm1.765625 -7.453125l3.796875 0q1.21875 0 1.8906403 -0.25q0.6875 -0.265625 1.046875 -0.8125q0.359375 -0.546875 0.359375 -1.1875q0 -0.953125 -0.6875 -1.5625q-0.6875 -0.609375 -2.1875153 -0.609375l-4.21875 0l0 4.421875zm18.097946 4.34375l1.6875 0.203125q-0.40625 1.484375 -1.484375 2.3125q-1.078125 0.8125 -2.765625 0.8125q-2.125 0 -3.375 -1.296875q-1.234375 -1.3125 -1.234375 -3.671875q0 -2.453125 1.25 -3.796875q1.265625 -1.34375 3.265625 -1.34375q1.9375 0 3.15625 1.328125q1.234375 1.3125 1.234375 3.703125q0 0.15625 0 0.4375l-7.21875 0q0.09375 1.59375 0.90625 2.453125q0.8125 0.84375 2.015625 0.84375q0.90625 0 1.546875 -0.46875q0.640625 -0.484375 1.015625 -1.515625zm-5.390625 -2.65625l5.40625 0q-0.109375 -1.21875 -0.625 -1.828125q-0.78125 -0.953125 -2.03125 -0.953125q-1.125 0 -1.90625 0.765625q-0.765625 0.75 -0.84375 2.015625zm15.406982 5.765625l0 -1.21875q-0.90625 1.4375 -2.703125 1.4375q-1.15625 0 -2.125 -0.640625q-0.96875 -0.640625 -1.5 -1.78125q-0.53125 -1.140625 -0.53125 -2.625q0 -1.453125 0.484375 -2.625q0.484375 -1.1875 1.4375 -1.8125q0.96875 -0.625 2.171875 -0.625q0.875 0 1.546875 0.375q0.6875 0.359375 1.109375 0.953125l0 -4.796875l1.640625 0l0 13.359375l-1.53125 0zm-5.171875 -4.828125q0 1.859375 0.78125 2.78125q0.78125 0.921875 1.84375 0.921875q1.078125 0 1.828125 -0.875q0.75 -0.890625 0.75 -2.6875q0 -1.984375 -0.765625 -2.90625q-0.765625 -0.9375 -1.890625 -0.9375q-1.078125 0 -1.8125 0.890625q-0.734375 0.890625 -0.734375 2.8125zm14.652771 4.828125l0 -13.359375l1.8125 0l7.015625 10.484375l0 -10.484375l1.6875 0l0 13.359375l-1.8125 0l-7.015625 -10.5l0 10.5l-1.6875 0zm19.91043 -3.109375l1.6875 0.203125q-0.40625 1.484375 -1.484375 2.3125q-1.078125 0.8125 -2.765625 0.8125q-2.125 0 -3.375 -1.296875q-1.234375 -1.3125 -1.234375 -3.671875q0 -2.453125 1.25 -3.796875q1.265625 -1.34375 3.265625 -1.34375q1.9375 0 3.15625 1.328125q1.234375 1.3125 1.234375 3.703125q0 0.15625 0 0.4375l-7.21875 0q0.09375 1.59375 0.90625 2.453125q0.8125 0.84375 2.015625 0.84375q0.90625 0 1.546875 -0.46875q0.640625 -0.484375 1.015625 -1.515625zm-5.390625 -2.65625l5.40625 0q-0.109375 -1.21875 -0.625 -1.828125q-0.78125 -0.953125 -2.03125 -0.953125q-1.125 0 -1.90625 0.765625q-0.765625 0.75 -0.84375 2.015625zm15.469482 5.765625l0 -1.421875q-1.125 1.640625 -3.0625 1.640625q-0.859375 0 -1.609375 -0.328125q-0.734375 -0.328125 -1.09375 -0.828125q-0.359375 -0.5 -0.5 -1.21875q-0.109375 -0.46875 -0.109375 -1.53125l0 -5.984375l1.640625 0l0 5.359375q0 1.28125 0.109375 1.734375q0.15625 0.640625 0.65625 1.015625q0.5 0.375 1.234375 0.375q0.734375 0 1.375 -0.375q0.65625 -0.390625 0.921875 -1.03125q0.265625 -0.65625 0.265625 -1.890625l0 -5.1875l1.640625 0l0 9.671875l-1.46875 0zm4.031952 0l0 -9.671875l1.46875 0l0 1.46875q0.5625 -1.03125 1.03125 -1.359375q0.484375 -0.328125 1.0625 -0.328125q0.828125 0 1.6875 0.53125l-0.5625 1.515625q-0.609375 -0.359375 -1.203125 -0.359375q-0.546875 0 -0.96875 0.328125q-0.421875 0.328125 -0.609375 0.890625q-0.28125 0.875 -0.28125 1.921875l0 5.0625l-1.625 0zm5.618927 -4.84375q0 -2.6875 1.484375 -3.96875q1.25 -1.078125 3.046875 -1.078125q2.0 0 3.265625 1.3125q1.265625 1.296875 1.265625 3.609375q0 1.859375 -0.5625 2.9375q-0.5625 1.0625 -1.640625 1.65625q-1.0625 0.59375 -2.328125 0.59375q-2.03125 0 -3.28125 -1.296875q-1.25 -1.3125 -1.25 -3.765625zm1.6875 0q0 1.859375 0.796875 2.796875q0.8125 0.921875 2.046875 0.921875q1.21875 0 2.03125 -0.921875q0.8125 -0.9375 0.8125 -2.84375q0 -1.796875 -0.8125 -2.71875q-0.8125 -0.921875 -2.03125 -0.921875q-1.234375 0 -2.046875 0.921875q-0.796875 0.90625 -0.796875 2.765625zm9.297607 4.84375l0 -9.671875l1.46875 0l0 1.375q1.0625 -1.59375 3.078125 -1.59375q0.875 0 1.609375 0.3125q0.734375 0.3125 1.09375 0.828125q0.375 0.5 0.515625 1.203125q0.09375 0.453125 0.09375 1.59375l0 5.953125l-1.640625 0l0 -5.890625q0 -1.0 -0.203125 -1.484375q-0.1875 -0.5 -0.671875 -0.796875q-0.484375 -0.296875 -1.140625 -0.296875q-1.046875 0 -1.8125 0.671875q-0.75 0.65625 -0.75 2.515625l0 5.28125l-1.640625 0zm16.688202 -1.1875q-0.921875 0.765625 -1.765625 1.09375q-0.828125 0.3125 -1.796875 0.3125q-1.59375 0 -2.453125 -0.78125q-0.859375 -0.78125 -0.859375 -1.984375q0 -0.71875 0.328125 -1.296875q0.328125 -0.59375 0.84375 -0.9375q0.53125 -0.359375 1.1875 -0.546875q0.46875 -0.125 1.453125 -0.25q1.984375 -0.234375 2.921875 -0.5625q0.015625 -0.34375 0.015625 -0.421875q0 -1.0 -0.46875 -1.421875q-0.625 -0.546875 -1.875 -0.546875q-1.15625 0 -1.703125 0.40625q-0.546875 0.40625 -0.8125 1.421875l-1.609375 -0.21875q0.21875 -1.015625 0.71875 -1.640625q0.5 -0.640625 1.453125 -0.984375q0.953125 -0.34375 2.1875 -0.34375q1.25 0 2.015625 0.296875q0.78125 0.28125 1.140625 0.734375q0.375 0.4375 0.515625 1.109375q0.078125 0.421875 0.078125 1.515625l0 2.1875q0 2.28125 0.109375 2.890625q0.109375 0.59375 0.40625 1.15625l-1.703125 0q-0.265625 -0.515625 -0.328125 -1.1875zm-0.140625 -3.671875q-0.890625 0.375 -2.671875 0.625q-1.015625 0.140625 -1.4375 0.328125q-0.421875 0.1875 -0.65625 0.53125q-0.21875 0.34375 -0.21875 0.78125q0 0.65625 0.5 1.09375q0.5 0.4375 1.453125 0.4375q0.9375 0 1.671875 -0.40625q0.75 -0.421875 1.09375 -1.140625q0.265625 -0.5625 0.265625 -1.640625l0 -0.609375zm4.1569824 4.859375l0 -13.359375l1.640625 0l0 13.359375l-1.640625 0z" fill-rule="nonzero"/><path fill="#000000" fill-opacity="0.0" d="m424.5853 205.4357l50.141724 0l0 61.417328l-50.141724 0z" fill-rule="evenodd"/><path fill="#000000" d="m435.16342 247.7157l5.171875 -24.8125l16.125 0l-0.59375 2.828125l-12.8125 0l-1.640625 7.90625l13.046875 0l-0.578125 2.828125l-13.046875 0l-2.359375 11.25l-3.3125 0z" fill-rule="nonzero"/><path fill="#000000" fill-opacity="0.0" d="m160.06036 148.80052l62.803146 66.07875" fill-rule="evenodd"/><path stroke="#000000" stroke-width="1.0" stroke-linejoin="round" stroke-linecap="butt" d="m160.06036 148.80052l58.669678 61.729675" fill-rule="evenodd"/><path fill="#000000" stroke="#000000" stroke-width="1.0" stroke-linecap="butt" d="m217.53279 211.6681l4.3236084 2.1515045l-1.9291077 -4.427307z" fill-rule="evenodd"/><path fill="#000000" fill-opacity="0.0" d="m116.80577 233.65663l113.41733 2.4881897" fill-rule="evenodd"/><path stroke="#000000" stroke-width="1.0" stroke-linejoin="round" stroke-linecap="butt" d="m116.80577 233.65665l107.41876 2.3565826" fill-rule="evenodd"/><path fill="#000000" stroke="#000000" stroke-width="1.0" stroke-linecap="butt" d="m224.18831 237.66457l4.573242 -1.5518036l-4.500778 -1.7508698z" fill-rule="evenodd"/><path fill="#000000" fill-opacity="0.0" d="m177.1916 299.7244l45.732285 -37.637787" fill-rule="evenodd"/><path stroke="#000000" stroke-width="1.0" stroke-linejoin="round" stroke-linecap="butt" d="m177.1916 299.7244l41.099503 -33.82498" fill-rule="evenodd"/><path fill="#000000" stroke="#000000" stroke-width="1.0" stroke-linecap="butt" d="m219.34073 267.17474l2.4543762 -4.159149l-4.5536194 1.6084595z" fill-rule="evenodd"/><path fill="#000000" fill-opacity="0.0" d="m379.51443 236.14482l45.07086 0" fill-rule="evenodd"/><path stroke="#000000" stroke-width="1.0" stroke-linejoin="round" stroke-linecap="butt" d="m379.51443 236.14482l39.07086 0" fill-rule="evenodd"/><path fill="#000000" stroke="#000000" stroke-width="1.0" stroke-linecap="butt" d="m418.5853 237.79655l4.5381165 -1.6517334l-4.5381165 -1.6517181z" fill-rule="evenodd"/></g></svg>